<?xml version="1.0" encoding="UTF-8"?>
<svg xmlns="http://www.w3.org/2000/svg" xmlns:xlink="http://www.w3.org/1999/xlink" width="375pt" height="374.999991pt" viewBox="0 0 375 374.999991" version="1.2">
<defs>
<clipPath id="clip1">
  <path d="M 37.5 24.285156 L 350.964844 24.285156 L 350.964844 350.363281 L 37.5 350.363281 Z M 37.5 24.285156 "/>
</clipPath>
</defs>
<g id="surface1">
<path style=" stroke:none;fill-rule:nonzero;fill:rgb(97.24884%,77.249146%,57.249451%);fill-opacity:1;" d="M 181.949219 96.050781 C 182.453125 92.421875 182.820312 88.796875 183.238281 85.167969 C 183.488281 82.910156 183.589844 80.636719 183.773438 78.363281 C 184.042969 75.105469 184.34375 71.84375 184.578125 68.582031 C 184.695312 66.84375 184.8125 65.089844 184.929688 63.351562 C 185.113281 60.476562 185.230469 57.601562 185.597656 54.722656 C 185.613281 54.558594 185.597656 54.390625 185.597656 54.222656 C 179.507812 54.074219 173.46875 54.792969 167.476562 55.761719 C 158.324219 57.25 149.1875 58.855469 140.453125 62.148438 C 138.296875 62.964844 138.296875 62.882812 136.738281 61.058594 C 136.171875 60.390625 135.703125 59.640625 135.03125 59.019531 C 132.90625 57.03125 130.464844 55.476562 128.023438 53.90625 C 123.167969 50.761719 118.117188 48.019531 112.746094 45.863281 C 105.902344 43.105469 98.976562 40.546875 91.945312 38.308594 C 87.296875 36.835938 82.609375 35.464844 77.824219 34.511719 C 68.621094 32.722656 59.269531 32.390625 49.964844 31.871094 C 49.5625 31.855469 49.128906 31.804688 48.761719 32.070312 C 48.84375 32.40625 49.128906 32.574219 49.347656 32.773438 C 52.207031 35.632812 55.335938 38.207031 58.566406 40.632812 C 65.34375 45.714844 72.554688 50.175781 79.699219 54.707031 C 89.738281 61.078125 99.777344 67.464844 108.847656 75.222656 C 112.613281 78.429688 116.125 81.875 118.804688 86.085938 C 119.808594 87.660156 120.695312 89.296875 121.011719 91.1875 C 121.113281 91.789062 120.996094 92.355469 120.273438 92.457031 C 119.574219 92.558594 119.289062 92.039062 119.203125 91.4375 C 119.085938 90.71875 118.835938 90.050781 118.535156 89.398438 C 117.164062 86.457031 115.171875 83.964844 112.964844 81.625 C 109.03125 77.460938 104.53125 73.917969 99.945312 70.507812 C 98.054688 69.101562 96.164062 67.664062 94.140625 66.425781 C 94.089844 66.359375 94.023438 66.292969 93.957031 66.410156 C 93.9375 66.425781 94.003906 66.492188 94.039062 66.527344 C 95.261719 70.539062 96.230469 74.601562 97.25 78.664062 C 98.605469 84.03125 100.144531 89.332031 102.386719 94.394531 C 104.09375 98.273438 106.21875 101.871094 109.296875 104.84375 C 109.917969 105.445312 109.785156 106.214844 109.097656 106.449219 C 108.578125 106.632812 108.246094 106.332031 107.925781 106.015625 C 106.085938 104.242188 104.5625 102.238281 103.257812 100.046875 C 102.105469 98.125 101.148438 96.101562 100.128906 93.84375 C 100.113281 94.195312 100.097656 94.328125 100.097656 94.445312 C 100.046875 97.808594 99.996094 101.183594 100.429688 104.527344 C 100.898438 108.039062 101.871094 111.367188 103.976562 114.292969 C 104.699219 115.292969 105.5 116.195312 106.355469 117.082031 C 106.738281 117.484375 106.789062 117.9375 106.402344 118.355469 C 106.019531 118.753906 105.550781 118.722656 105.132812 118.386719 C 104.980469 118.269531 104.847656 118.121094 104.714844 117.984375 C 100.546875 113.855469 98.925781 108.691406 98.4375 103.023438 C 98.207031 100.179688 98.253906 97.339844 98.289062 94.511719 C 98.304688 93.257812 98.371094 92.003906 98.839844 90.820312 C 98.941406 90.566406 98.859375 90.382812 98.789062 90.183594 C 97.132812 85.519531 95.964844 80.722656 94.707031 75.957031 C 93.703125 72.09375 93.019531 68.132812 91.128906 64.554688 C 90.925781 64.171875 90.640625 63.96875 90.339844 63.769531 C 83.011719 58.835938 75.449219 54.289062 68.054688 49.457031 C 61.777344 45.363281 55.636719 41.066406 50.066406 36.015625 C 49.230469 35.265625 48.425781 34.480469 47.554688 33.660156 C 47.488281 33.828125 47.4375 33.910156 47.4375 33.976562 C 47.355469 34.710938 47.523438 35.414062 47.554688 36.132812 C 47.738281 42.234375 48.324219 48.289062 49.046875 54.355469 C 50.199219 64.152344 52.742188 73.582031 56.390625 82.726562 C 58.347656 87.625 60.675781 92.324219 63.300781 96.902344 C 66.78125 102.972656 70.53125 108.875 74.878906 114.359375 C 78.34375 118.722656 81.957031 122.949219 86.292969 126.527344 C 90.191406 129.738281 94.339844 132.597656 98.65625 135.207031 C 102.457031 137.496094 106.320312 139.652344 110.585938 140.988281 C 111.941406 141.40625 112.777344 142.378906 113.597656 143.378906 C 113.816406 143.648438 113.851562 143.984375 113.800781 144.332031 C 113.449219 147.425781 113.246094 150.535156 113.347656 153.644531 C 113.464844 157.40625 113.648438 161.152344 113.96875 164.898438 C 114.453125 170.582031 115.371094 176.164062 117.429688 181.515625 C 118.234375 183.605469 119.085938 185.644531 120.507812 187.398438 C 120.507812 186.296875 120.039062 185.308594 119.824219 184.238281 C 118.804688 179.058594 119.738281 174.191406 121.78125 169.394531 C 122.734375 167.171875 124.476562 165.75 126.183594 164.277344 C 129.476562 161.417969 132.90625 158.726562 136.4375 156.152344 C 140.488281 153.210938 144.722656 150.535156 149.054688 148.027344 C 153.171875 145.636719 157.4375 143.53125 161.402344 140.871094 C 166.039062 137.761719 169.6875 133.75 172.515625 128.96875 C 175.726562 123.554688 177.601562 117.632812 179.074219 111.566406 C 180.3125 106.449219 181.214844 101.269531 181.949219 96.050781 Z M 151.128906 75.121094 C 151.097656 74.6875 151.347656 74.417969 151.683594 74.25 C 152.066406 74.066406 152.382812 74.316406 152.636719 74.570312 C 153.808594 75.773438 154.8125 77.09375 155.816406 78.429688 C 157.019531 80.035156 158.140625 81.691406 158.925781 83.546875 C 159.109375 83.996094 159.246094 84.484375 159.394531 84.96875 C 159.578125 85.550781 159.328125 85.988281 158.792969 86.15625 C 158.207031 86.320312 157.839844 85.96875 157.671875 85.417969 C 157.171875 83.714844 156.300781 82.207031 155.28125 80.753906 C 154.089844 79.066406 152.785156 77.476562 151.464844 75.90625 C 151.261719 75.671875 151.078125 75.4375 151.128906 75.121094 Z M 146.796875 79.183594 C 147.230469 78.5625 147.851562 78.730469 148.351562 79.066406 C 151.128906 80.953125 153.503906 83.277344 155.429688 86.054688 C 155.5625 86.238281 155.664062 86.4375 155.648438 86.671875 C 155.699219 87.15625 155.429688 87.492188 155.011719 87.640625 C 154.476562 87.828125 154.160156 87.410156 153.941406 87.039062 C 153.070312 85.667969 151.917969 84.53125 150.777344 83.394531 C 149.742188 82.34375 148.585938 81.421875 147.363281 80.605469 C 146.863281 80.269531 146.3125 79.851562 146.796875 79.183594 Z M 160.617188 127.148438 C 159.980469 128.167969 159.226562 129.085938 158.308594 129.871094 C 154.828125 132.816406 150.796875 132.027344 147.96875 128.636719 C 145.625 125.828125 144.503906 122.484375 144.019531 118.9375 C 143.347656 114.058594 143.800781 109.277344 145.890625 104.746094 C 146.710938 102.957031 147.785156 101.335938 149.355469 100.113281 C 152.5 97.65625 155.980469 97.855469 158.808594 100.714844 C 161.203125 103.140625 162.40625 106.164062 163.144531 109.410156 C 163.578125 111.28125 163.746094 113.203125 163.710938 115.125 C 163.695312 119.390625 162.894531 123.453125 160.617188 127.148438 Z M 160.617188 127.148438 "/>
<path style=" stroke:none;fill-rule:nonzero;fill:rgb(97.24884%,77.249146%,57.249451%);fill-opacity:1;" d="M 342.332031 55.375 C 340.640625 55.675781 338.917969 55.859375 337.210938 56.09375 C 332.574219 56.765625 327.941406 57.550781 323.355469 58.535156 C 314.738281 60.390625 306.441406 63.167969 298.359375 66.660156 C 295.445312 67.914062 292.585938 69.300781 289.773438 70.757812 C 289.457031 70.925781 289.1875 71.023438 289.507812 71.460938 C 289.859375 71.925781 289.589844 72.363281 289.207031 72.695312 C 288.535156 73.265625 288.015625 73.949219 287.550781 74.6875 C 286.328125 76.625 285.457031 78.730469 284.652344 80.871094 C 282.210938 87.292969 280.554688 93.945312 278.496094 100.480469 C 278.378906 100.832031 278.363281 101.066406 278.847656 101.066406 C 279.433594 101.082031 279.652344 101.535156 279.734375 102.019531 C 279.984375 103.660156 280.171875 105.332031 280.285156 106.984375 C 280.472656 109.695312 280.355469 112.367188 279.9375 115.042969 C 279.449219 118.1875 278.480469 121.144531 276.4375 123.667969 C 275.96875 124.253906 275.46875 124.824219 274.832031 125.242188 C 274.378906 125.542969 273.910156 125.542969 273.578125 125.074219 C 273.242188 124.621094 273.308594 124.171875 273.726562 123.804688 C 275.851562 122.03125 276.941406 119.675781 277.660156 117.082031 C 278.648438 113.488281 278.613281 109.8125 278.394531 106.148438 C 278.328125 104.945312 278.277344 103.691406 277.859375 102.40625 C 277.410156 103.457031 277.023438 104.394531 276.589844 105.332031 C 275.300781 108.089844 273.710938 110.664062 271.535156 112.851562 C 271.085938 113.304688 270.550781 113.570312 270.011719 112.988281 C 269.496094 112.433594 269.828125 111.96875 270.246094 111.53125 C 271.972656 109.828125 273.257812 107.820312 274.363281 105.679688 C 276.523438 101.535156 277.59375 97.003906 278.949219 92.574219 C 281.023438 85.785156 282.746094 78.867188 286.578125 72.746094 C 286.628906 72.679688 286.746094 72.546875 286.730469 72.527344 C 286.59375 72.394531 286.511719 72.511719 286.429688 72.597656 C 286.328125 72.628906 286.210938 72.664062 286.125 72.714844 C 276.304688 78.3125 267.035156 84.632812 259.503906 93.210938 C 258.988281 93.792969 258.417969 93.878906 258 93.445312 C 257.480469 92.910156 257.765625 92.421875 258.148438 91.972656 C 259.65625 90.167969 261.3125 88.527344 263.035156 86.921875 C 269.476562 80.90625 276.722656 75.972656 284.371094 71.609375 C 300.113281 62.597656 317.03125 57.03125 334.984375 54.558594 C 335.957031 54.421875 336.910156 54.238281 337.863281 54.074219 C 329.882812 52.285156 321.882812 50.847656 313.769531 50.09375 C 310.824219 49.824219 307.878906 49.609375 304.917969 49.59375 C 302.023438 49.574219 299.128906 49.875 296.234375 49.992188 C 288.972656 50.292969 281.742188 51.046875 274.496094 51.832031 C 264.757812 52.886719 255.421875 55.460938 246.304688 58.921875 C 244.296875 59.671875 242.253906 60.339844 240.363281 61.394531 C 240.078125 61.5625 239.894531 61.429688 239.660156 61.34375 C 236.332031 60.125 232.949219 59.136719 229.488281 58.386719 C 223.832031 57.164062 218.144531 56.078125 212.402344 55.242188 C 209.039062 54.757812 205.660156 54.40625 202.265625 54.257812 C 202.128906 55.609375 202.429688 56.949219 202.515625 58.300781 C 202.582031 59.339844 202.648438 60.410156 202.75 61.445312 C 203 64.4375 203.101562 67.429688 203.300781 70.421875 C 203.550781 73.984375 203.820312 77.5625 204.136719 81.121094 C 204.4375 84.464844 204.757812 87.792969 205.140625 91.121094 C 206.0625 98.910156 207.316406 106.652344 209.339844 114.242188 C 210.394531 118.167969 211.667969 122.015625 213.457031 125.675781 C 214.996094 128.820312 216.90625 131.746094 219.179688 134.453125 C 222.59375 138.5 226.878906 141.40625 231.445312 143.933594 C 237.367188 147.191406 243.273438 150.484375 248.832031 154.347656 C 252.644531 156.988281 256.34375 159.816406 259.855469 162.839844 C 261.261719 164.0625 262.703125 165.246094 264.125 166.453125 C 264.625 166.871094 264.925781 167.4375 265.246094 168.007812 C 265.496094 168.441406 265.578125 168.960938 266.015625 169.277344 C 266.066406 169.058594 266.148438 168.859375 266.183594 168.640625 C 266.816406 162.722656 267.320312 156.789062 267.167969 150.835938 C 267.070312 146.824219 266.816406 142.828125 266.25 138.851562 C 266.214844 138.566406 266.199219 138.265625 266.347656 138.03125 C 267.035156 136.996094 267.804688 135.90625 269.007812 135.605469 C 273.796875 134.402344 278.445312 132.78125 283.097656 131.125 C 287.382812 129.605469 291.566406 127.816406 295.480469 125.507812 C 302.910156 121.144531 309.453125 115.660156 315.410156 109.476562 C 320.578125 104.109375 325.449219 98.507812 329.429688 92.171875 C 331.605469 88.730469 333.597656 85.183594 335.234375 81.472656 C 337.058594 77.359375 338.464844 73.113281 339.738281 68.816406 C 340.992188 64.570312 342.078125 60.292969 342.832031 55.910156 C 342.984375 55.425781 342.964844 55.257812 342.332031 55.375 Z M 241.570312 85.101562 C 241.835938 85.6875 241.46875 86.039062 240.984375 86.289062 C 239.242188 87.207031 237.503906 88.160156 235.914062 89.332031 C 235.695312 89.496094 235.476562 89.546875 235.191406 89.546875 C 234.84375 89.582031 234.539062 89.464844 234.375 89.113281 C 234.1875 88.746094 234.289062 88.410156 234.589844 88.128906 C 235.242188 87.457031 236.0625 87.039062 236.832031 86.554688 C 237.902344 85.851562 239.023438 85.25 240.179688 84.667969 C 240.78125 84.367188 241.285156 84.5 241.570312 85.101562 Z M 229.21875 86.855469 C 230.257812 85.035156 231.613281 83.445312 233 81.90625 C 234.40625 80.371094 235.929688 78.949219 237.636719 77.746094 C 238.136719 77.394531 238.65625 77.078125 239.277344 76.976562 C 239.695312 76.960938 240.011719 77.125 240.113281 77.527344 C 240.246094 77.996094 240.128906 78.414062 239.660156 78.664062 C 237.921875 79.585938 236.480469 80.90625 235.144531 82.308594 C 233.519531 83.980469 231.964844 85.71875 230.824219 87.777344 C 230.542969 88.292969 230.191406 88.746094 229.519531 88.460938 C 228.953125 88.210938 228.835938 87.523438 229.21875 86.855469 Z M 240.246094 127.148438 C 239.578125 128.234375 238.773438 129.238281 237.738281 130.023438 C 234.589844 132.414062 231.144531 132.210938 228.332031 129.421875 C 226.175781 127.28125 224.953125 124.605469 224.234375 121.695312 C 222.792969 115.894531 223.078125 110.210938 225.539062 104.726562 C 226.34375 102.9375 227.429688 101.316406 229.003906 100.097656 C 232.148438 97.640625 235.644531 97.855469 238.457031 100.699219 C 240.882812 103.140625 242.070312 106.199219 242.804688 109.476562 C 243.226562 111.332031 243.359375 113.222656 243.359375 115.109375 C 243.359375 119.390625 242.539062 123.46875 240.246094 127.148438 Z M 240.246094 127.148438 "/>
<path style=" stroke:none;fill-rule:nonzero;fill:rgb(97.24884%,77.249146%,57.249451%);fill-opacity:1;" d="M 161.1875 282.960938 C 158.359375 281.003906 155.210938 279.617188 152.167969 278.078125 C 147.449219 275.6875 142.980469 272.980469 139.25 269.167969 C 137.292969 267.160156 135.335938 265.140625 133.445312 263.050781 C 131.21875 260.589844 129.09375 258.050781 127.351562 255.242188 C 126.382812 253.671875 125.394531 252.03125 125.527344 250.058594 C 125.613281 248.855469 125.996094 247.71875 126.515625 246.648438 C 127.769531 244.058594 129.429688 241.800781 131.835938 240.144531 C 132.824219 239.476562 133.796875 239.476562 134.78125 240.144531 C 135.886719 240.863281 136.855469 241.734375 137.792969 242.652344 C 138.679688 243.539062 139.601562 244.390625 140.605469 245.144531 C 141.339844 245.695312 142.160156 245.980469 142.996094 245.460938 C 143.851562 244.925781 143.867188 244.007812 143.734375 243.136719 C 143.566406 242.132812 143.332031 241.132812 143.066406 240.144531 C 141.828125 235.714844 140.472656 231.300781 139.316406 226.855469 C 138.195312 222.539062 137.191406 218.195312 136.875 213.714844 C 136.738281 211.890625 136.621094 210.050781 136.65625 208.230469 C 136.691406 206.574219 136.574219 204.886719 136.925781 203.25 C 136.925781 202.914062 136.925781 202.578125 136.925781 202.226562 C 136.808594 202.144531 136.707031 202.042969 136.589844 201.976562 C 133.34375 200.15625 130.148438 198.25 127.152344 196.027344 C 124.828125 194.304688 122.484375 192.597656 121.496094 189.671875 C 119.1875 193 117.179688 196.492188 115.253906 200.039062 C 112.679688 204.785156 110.789062 209.851562 108.796875 214.867188 C 107.910156 217.109375 106.921875 219.332031 106.320312 221.65625 C 105.148438 226.21875 104.511719 230.898438 103.878906 235.582031 C 103.15625 240.8125 102.957031 246.0625 102.992188 251.3125 C 103.007812 255.226562 103.242188 259.152344 103.726562 263.050781 C 104.261719 267.246094 105 271.375 106.070312 275.46875 C 106.6875 277.828125 107.441406 280.152344 108.292969 282.441406 C 108.597656 283.246094 108.328125 283.914062 107.660156 284.179688 C 106.972656 284.464844 106.335938 284.148438 105.984375 283.363281 C 105.902344 283.160156 105.835938 282.945312 105.75 282.742188 C 103.375 276.355469 102.003906 269.753906 101.21875 263 C 100.648438 258.183594 100.429688 253.351562 100.480469 248.503906 C 100.546875 242.886719 101.050781 237.304688 101.886719 231.734375 C 102.722656 226.136719 103.828125 220.585938 105.398438 215.152344 C 105.75 213.949219 106.101562 212.726562 106.472656 211.472656 C 106.070312 211.539062 105.886719 211.757812 105.667969 211.925781 C 103.742188 213.445312 102.035156 215.203125 100.3125 216.957031 C 96.214844 221.171875 92.550781 225.683594 89.453125 230.683594 C 87.480469 233.875 85.554688 237.121094 84.101562 240.597656 C 83.5625 241.867188 82.960938 243.054688 81.992188 244.039062 C 82.558594 245.058594 83.464844 245.828125 84.167969 246.75 C 87.796875 251.480469 90.574219 256.695312 93.019531 262.097656 C 94.691406 265.789062 96.179688 269.550781 97.417969 273.429688 C 98.671875 277.375 99.511719 281.40625 100.097656 285.5 C 100.3125 287.054688 100.582031 288.628906 100.613281 290.199219 C 101.148438 289.964844 101.71875 289.882812 102.304688 289.847656 C 105.515625 289.582031 108.761719 289.648438 111.941406 289.0625 C 112.125 289.027344 112.328125 288.980469 112.496094 289.128906 C 113.382812 289.863281 114.25 290.582031 114.738281 291.671875 C 116.109375 294.714844 117.515625 297.738281 119.289062 300.566406 C 121.480469 301.03125 123.636719 301.601562 125.78125 302.320312 C 129.828125 303.65625 134.011719 304.59375 138.230469 305.296875 C 142.246094 305.964844 146.261719 306.601562 150.359375 306.414062 C 151.714844 306.347656 153.070312 306.25 154.359375 305.730469 C 156.652344 304.8125 158.527344 303.273438 160.148438 301.46875 C 162.589844 298.742188 164.480469 295.683594 165.25 292.054688 C 165.71875 289.863281 165.6875 287.757812 164.332031 285.835938 C 163.511719 284.566406 162.339844 283.78125 161.1875 282.960938 Z M 161.1875 282.960938 "/>
<path style=" stroke:none;fill-rule:nonzero;fill:rgb(97.24884%,77.249146%,57.249451%);fill-opacity:1;" d="M 293.539062 238.207031 C 291.28125 233.589844 288.503906 229.296875 285.492188 225.132812 C 284.9375 224.378906 284.46875 223.5625 283.667969 222.890625 C 283.667969 223.160156 283.632812 223.328125 283.667969 223.476562 C 284.621094 228.023438 285.15625 232.621094 285.707031 237.21875 C 286.261719 241.949219 286.546875 246.699219 286.628906 251.445312 C 286.695312 255.375 286.496094 259.304688 286.292969 263.214844 C 286.144531 265.875 285.910156 268.550781 285.609375 271.191406 C 285.238281 274.46875 284.789062 277.746094 284.304688 281.003906 C 284.019531 282.945312 283.632812 284.882812 283.265625 286.820312 C 283.097656 287.691406 282.546875 288.09375 281.808594 287.976562 C 281.089844 287.875 280.738281 287.308594 280.824219 286.402344 C 280.839844 286.238281 280.871094 286.070312 280.90625 285.902344 C 281.105469 284.832031 281.308594 283.78125 281.507812 282.710938 C 282.160156 279.015625 282.664062 275.304688 283.066406 271.574219 C 283.417969 268.347656 283.683594 265.105469 283.882812 261.863281 C 284.019531 259.773438 284.019531 257.683594 284.117188 255.609375 C 284.304688 252.066406 284.070312 248.539062 283.933594 245.011719 C 283.816406 242.203125 283.484375 239.410156 283.183594 236.632812 C 282.949219 234.476562 282.847656 232.304688 282.277344 230.214844 C 281.660156 227.890625 280.890625 225.601562 280.136719 223.292969 C 279.265625 220.617188 278.113281 218.058594 277.15625 215.4375 C 276.105469 212.527344 275 209.652344 273.644531 206.875 C 271.46875 202.363281 268.890625 198.050781 266.230469 193.820312 C 264.910156 191.730469 263.605469 189.621094 262.117188 187.648438 C 261.746094 187.835938 261.613281 188.21875 261.363281 188.519531 C 260.59375 189.457031 259.839844 190.390625 259.085938 191.328125 C 259.136719 191.78125 259.203125 192.230469 259.253906 192.683594 C 259.320312 193.234375 259.371094 193.785156 259.4375 194.335938 C 259.65625 196.378906 259.808594 198.417969 259.992188 200.457031 C 260.242188 203.28125 260.359375 206.105469 260.375 208.933594 C 260.375 210.554688 260.308594 212.191406 260.15625 213.832031 C 259.839844 217.375 259.136719 220.851562 258.335938 224.296875 C 257.144531 229.34375 255.574219 234.292969 254.183594 239.292969 C 253.78125 240.730469 253.363281 242.183594 253.246094 243.671875 C 253.199219 244.410156 253.398438 245.078125 254.085938 245.460938 C 254.753906 245.828125 255.441406 245.730469 256.058594 245.328125 C 256.425781 245.09375 256.792969 244.828125 257.128906 244.523438 C 258.453125 243.339844 259.757812 242.117188 261.078125 240.929688 C 263.019531 239.207031 264.089844 239.207031 266.046875 240.761719 C 268.003906 242.335938 269.378906 244.339844 270.480469 246.53125 C 271.753906 249.023438 271.886719 251.53125 270.398438 253.988281 C 269.710938 255.125 269.007812 256.261719 268.222656 257.347656 C 264.875 261.910156 260.976562 266.007812 256.929688 269.9375 C 255.273438 271.542969 253.515625 273.046875 251.558594 274.300781 C 246.738281 277.375 241.453125 279.566406 236.515625 282.441406 C 235.378906 283.363281 234.089844 284.082031 233.117188 285.21875 C 232.132812 286.355469 231.613281 287.65625 231.480469 289.128906 C 231.429688 290.816406 231.746094 292.457031 232.332031 294.027344 C 233.789062 297.941406 236.214844 301.148438 239.441406 303.808594 C 242.003906 305.914062 245.015625 306.484375 248.09375 306.414062 C 251.039062 306.347656 254 305.996094 256.929688 305.511719 C 262.082031 304.660156 267.167969 303.574219 272.136719 301.917969 C 273.191406 301.566406 274.144531 300.980469 275.265625 300.78125 C 276.320312 298.574219 277.242188 296.300781 278.027344 293.996094 C 278.53125 292.539062 279.234375 291.269531 280.472656 290.316406 C 280.789062 290.066406 281.105469 289.914062 281.523438 289.914062 C 282.546875 289.882812 283.582031 289.882812 284.605469 289.714844 C 285.191406 289.613281 285.625 289.699219 286.058594 290.082031 C 286.242188 286.789062 286.8125 283.527344 287.464844 280.300781 C 288.871094 273.429688 291.429688 266.960938 294.359375 260.609375 C 295.796875 257.5 297.421875 254.488281 299.210938 251.5625 C 299.328125 251.378906 299.378906 251.164062 299.460938 250.945312 C 298.792969 250.140625 298.058594 249.421875 297.707031 248.371094 C 296.484375 244.941406 295.144531 241.515625 293.539062 238.207031 Z M 293.539062 238.207031 "/>
<path style=" stroke:none;fill-rule:nonzero;fill:rgb(97.24884%,77.249146%,57.249451%);fill-opacity:1;" d="M 205.175781 225.117188 C 203.316406 222.859375 201.175781 221.019531 198.464844 219.816406 C 195.304688 218.410156 192.039062 218.09375 188.695312 218.679688 C 184.5625 219.398438 181.230469 221.589844 178.554688 224.78125 C 175.441406 228.945312 174.320312 233.574219 175.390625 238.65625 C 176.246094 242.703125 178.402344 245.964844 181.683594 248.472656 C 183.824219 250.109375 186.25 251.078125 188.859375 251.628906 C 189.230469 251.714844 189.597656 251.78125 189.613281 251.195312 C 189.648438 250.34375 189.730469 249.472656 189.75 248.621094 C 189.765625 246.363281 189.714844 244.105469 189.78125 241.851562 C 189.816406 240.863281 189.597656 240.128906 188.84375 239.425781 C 187.742188 238.421875 187.589844 236.550781 188.277344 235.097656 C 189.011719 233.492188 190.703125 232.773438 191.972656 232.839844 C 193.53125 232.921875 194.816406 233.660156 195.46875 235.144531 C 196.105469 236.601562 195.988281 238.023438 195.019531 239.324219 C 194.835938 239.578125 194.632812 239.777344 194.617188 240.113281 C 194.582031 241.296875 194.515625 242.503906 194.464844 243.6875 C 194.398438 246.03125 194.535156 248.355469 194.601562 250.695312 C 194.617188 251.429688 194.785156 251.597656 195.519531 251.414062 C 199.519531 250.425781 202.734375 248.253906 205.207031 244.992188 C 207.5 241.96875 208.570312 238.472656 208.488281 234.710938 C 208.40625 231.199219 207.285156 227.972656 205.175781 225.117188 Z M 205.175781 225.117188 "/>
<path style=" stroke:none;fill-rule:nonzero;fill:rgb(90.19928%,87.059021%,83.139038%);fill-opacity:1;" d="M 172.230469 294.847656 C 172.714844 295.480469 173.148438 296.300781 174.1875 296.167969 C 174.671875 295.433594 175.308594 294.847656 175.960938 294.261719 C 176.277344 293.976562 176.546875 293.945312 176.898438 294.144531 C 176.863281 293.59375 176.765625 293.058594 176.445312 292.574219 C 174.453125 289.496094 172.164062 286.636719 170.003906 283.695312 C 165.652344 277.777344 161.136719 271.976562 157.289062 265.691406 C 156.566406 264.519531 155.3125 264.136719 154.207031 264.703125 C 153.003906 265.324219 152.5 266.695312 153.085938 267.964844 C 153.40625 268.632812 153.789062 269.285156 154.207031 269.921875 C 157.855469 275.519531 161.871094 280.871094 165.855469 286.238281 C 167.996094 289.097656 170.085938 291.988281 172.230469 294.847656 Z M 172.230469 294.847656 "/>
<path style=" stroke:none;fill-rule:nonzero;fill:rgb(90.19928%,87.059021%,83.139038%);fill-opacity:1;" d="M 220.71875 313.65625 C 219.683594 313.453125 218.914062 314.054688 218.292969 314.792969 C 217.558594 315.660156 217.023438 316.679688 216.46875 317.667969 C 213.640625 322.800781 211.683594 328.167969 211.851562 334.132812 C 211.867188 334.503906 211.984375 334.921875 211.71875 335.253906 C 211.835938 335.503906 211.953125 335.757812 212.085938 335.988281 C 213.289062 337.847656 215.296875 338.597656 217.15625 339.550781 C 217.304688 338.816406 217.054688 338.113281 216.972656 337.410156 C 216.671875 335.039062 216.503906 332.648438 216.90625 330.289062 C 217.707031 325.726562 219.414062 321.511719 222.125 317.699219 C 223.296875 316.09375 222.578125 314.007812 220.71875 313.65625 Z M 220.71875 313.65625 "/>
<path style=" stroke:none;fill-rule:nonzero;fill:rgb(90.19928%,87.059021%,83.139038%);fill-opacity:1;" d="M 187.941406 337.878906 C 187.941406 334.71875 186.96875 331.8125 185.613281 329.019531 C 183.839844 325.359375 181.398438 322.097656 179.390625 318.570312 C 178.90625 317.734375 177.652344 317.265625 176.863281 317.5 C 175.375 317.953125 174.238281 319.371094 175.476562 321.378906 C 177.082031 324.003906 178.753906 326.613281 180.292969 329.269531 C 182.019531 332.261719 183.273438 335.421875 183.089844 338.984375 C 183.054688 339.617188 183.121094 340.253906 183.140625 340.90625 C 184.894531 340.304688 186.570312 339.484375 188.125 338.480469 C 187.925781 338.332031 187.941406 338.097656 187.941406 337.878906 Z M 187.941406 337.878906 "/>
<path style=" stroke:none;fill-rule:nonzero;fill:rgb(90.19928%,87.059021%,83.139038%);fill-opacity:1;" d="M 175.058594 342.242188 C 173.183594 340.554688 171.242188 338.949219 169.535156 337.078125 C 167.160156 334.46875 165.46875 331.476562 164.199219 328.214844 C 163.730469 327.027344 163.410156 325.792969 162.992188 324.589844 C 162.558594 323.316406 160.953125 322.246094 159.597656 323.132812 C 158.609375 323.785156 158.089844 324.941406 158.425781 326.109375 C 160.066406 331.859375 162.609375 337.09375 166.941406 341.339844 C 167.34375 341.742188 167.914062 342.027344 168.03125 342.660156 C 170.472656 343.078125 172.933594 343.296875 175.390625 342.792969 C 175.390625 342.542969 175.222656 342.394531 175.058594 342.242188 Z M 175.058594 342.242188 "/>
<path style=" stroke:none;fill-rule:nonzero;fill:rgb(90.19928%,87.059021%,83.139038%);fill-opacity:1;" d="M 231.613281 325.359375 C 229.957031 327.097656 229.035156 329.304688 228.117188 331.476562 C 226.691406 334.886719 226.15625 338.597656 224.585938 341.957031 C 226.292969 342.328125 228.03125 342.476562 229.789062 342.425781 C 229.855469 341.441406 230.375 340.585938 230.625 339.652344 C 231.714844 335.6875 232.785156 331.710938 235.261719 328.300781 C 235.644531 327.78125 235.929688 327.144531 235.730469 326.425781 C 235.191406 324.589844 232.953125 323.953125 231.613281 325.359375 Z M 231.613281 325.359375 "/>
<path style=" stroke:none;fill-rule:nonzero;fill:rgb(90.19928%,87.059021%,83.139038%);fill-opacity:1;" d="M 259.035156 191.328125 C 258.703125 191.363281 258.519531 191.628906 258.300781 191.847656 C 256.375 193.871094 254.132812 195.523438 251.859375 197.113281 C 247.574219 200.089844 243.039062 202.613281 238.273438 204.734375 C 233.488281 206.859375 228.550781 208.566406 223.496094 209.902344 C 217.140625 211.574219 210.695312 212.761719 204.15625 213.445312 C 200.839844 213.78125 197.511719 213.980469 194.199219 214.046875 C 188.8125 214.164062 183.40625 214.097656 178.035156 213.597656 C 175.476562 213.363281 172.914062 213.09375 170.371094 212.695312 C 165.46875 211.925781 160.617188 210.90625 155.847656 209.566406 C 150.511719 208.0625 145.308594 206.207031 140.304688 203.816406 C 139.183594 203.28125 138.09375 202.628906 136.925781 202.195312 C 136.925781 202.53125 136.925781 202.863281 136.925781 203.214844 C 137.710938 203.984375 138.464844 204.804688 139.28125 205.539062 C 141.710938 207.710938 144.253906 209.71875 146.929688 211.539062 C 152.367188 215.25 158.074219 218.445312 164.214844 220.835938 C 164.851562 221.085938 165.46875 221.570312 166.15625 221.488281 C 166.925781 221.386719 167.511719 221.636719 168.097656 222.039062 C 168.648438 222.425781 169.234375 222.726562 169.886719 222.910156 C 172.746094 223.695312 175.644531 224.28125 178.570312 224.78125 C 181.25 221.570312 184.578125 219.398438 188.710938 218.679688 C 192.039062 218.09375 195.320312 218.410156 198.484375 219.816406 C 201.191406 221.019531 203.335938 222.875 205.191406 225.117188 C 205.308594 225.066406 205.425781 224.964844 205.558594 224.949219 C 210.277344 223.980469 214.996094 222.976562 219.632812 221.589844 C 222.542969 220.71875 225.539062 220.117188 228.214844 218.496094 C 232.566406 215.871094 236.867188 213.144531 240.984375 210.167969 C 244.0625 207.945312 247.054688 205.605469 249.867188 203.03125 C 251.976562 201.089844 253.984375 199.070312 255.859375 196.894531 C 257.027344 195.523438 258.050781 194.054688 259.253906 192.699219 C 259.152344 192.230469 259.085938 191.78125 259.035156 191.328125 Z M 259.035156 191.328125 "/>
<path style=" stroke:none;fill-rule:nonzero;fill:rgb(90.19928%,87.059021%,83.139038%);fill-opacity:1;" d="M 245.417969 263.800781 C 244.414062 263.617188 243.59375 264.101562 243.023438 264.855469 C 241.132812 267.414062 239.308594 270.039062 237.433594 272.628906 C 234.390625 276.824219 231.3125 281.003906 228.28125 285.199219 C 227.328125 286.519531 226.257812 287.773438 225.472656 289.210938 C 224.820312 290.417969 225.121094 291.535156 226.226562 292.355469 C 227.144531 293.042969 228.25 292.859375 229.21875 291.953125 C 230.089844 291.136719 230.574219 290 231.429688 289.164062 C 231.5625 287.691406 232.082031 286.386719 233.066406 285.25 C 234.054688 284.128906 235.328125 283.394531 236.464844 282.476562 C 236.265625 282.207031 236.566406 282.058594 236.664062 281.921875 C 238.1875 279.800781 239.726562 277.695312 241.25 275.585938 C 243.140625 272.980469 245.066406 270.40625 246.839844 267.730469 C 247.191406 267.195312 247.542969 266.644531 247.476562 265.976562 C 247.359375 264.9375 246.488281 264 245.417969 263.800781 Z M 245.417969 263.800781 "/>
<g clip-path="url(#clip1)" clip-rule="nonzero">
<path style=" stroke:none;fill-rule:nonzero;fill:rgb(43.919373%,22.749329%,26.669312%);fill-opacity:1;" d="M 274.332031 141.339844 C 277.074219 140.4375 279.800781 139.453125 282.5625 138.550781 C 289.976562 136.140625 296.683594 132.363281 303.058594 128 C 309.902344 123.320312 316.109375 117.820312 321.75 111.734375 C 327.507812 105.53125 332.476562 98.726562 337.042969 91.605469 C 339.371094 87.976562 341.394531 84.148438 343.066406 80.167969 C 344.992188 75.554688 346.429688 70.789062 347.820312 66.007812 C 349.125 61.511719 349.910156 56.914062 350.695312 52.300781 C 350.964844 50.777344 350.578125 50.078125 349.109375 49.523438 C 346.796875 48.65625 344.371094 48.1875 341.960938 47.667969 C 335.070312 46.164062 328.160156 44.828125 321.179688 43.808594 C 315.191406 42.9375 309.152344 42.453125 303.09375 42.585938 C 293.941406 42.789062 284.839844 43.539062 275.734375 44.527344 C 265.664062 45.613281 255.957031 48.085938 246.519531 51.699219 C 244.464844 52.484375 242.371094 53.167969 240.429688 54.222656 C 240.214844 54.339844 240.027344 54.304688 239.8125 54.238281 C 235.613281 52.71875 231.3125 51.566406 226.945312 50.679688 C 221.320312 49.542969 215.667969 48.503906 209.976562 47.753906 C 205.910156 47.21875 201.8125 47.050781 197.710938 47 C 189.632812 46.917969 181.53125 46.75 173.484375 47.734375 C 166.757812 48.554688 160.097656 49.777344 153.472656 51.164062 C 148.820312 52.132812 144.304688 53.503906 139.867188 55.210938 C 138.949219 55.558594 138.464844 55.410156 137.8125 54.757812 C 135.351562 52.214844 132.859375 49.707031 129.777344 47.886719 C 129.210938 47.550781 128.640625 47.183594 128.089844 46.816406 C 123.203125 43.625 118.101562 40.863281 112.679688 38.691406 C 107.039062 36.417969 101.367188 34.292969 95.59375 32.371094 C 89.957031 30.484375 84.300781 28.710938 78.476562 27.523438 C 68.722656 25.484375 58.800781 25.117188 48.894531 24.664062 C 47.671875 24.613281 46.417969 24.75 45.214844 24.332031 C 44.496094 24.332031 43.757812 24.332031 43.039062 24.332031 C 42.988281 24.382812 42.9375 24.464844 42.871094 24.480469 C 40.746094 25.066406 40.429688 25.519531 40.210938 28.210938 C 39.941406 31.554688 40.292969 34.898438 40.429688 38.222656 C 40.730469 45.929688 41.515625 53.605469 42.871094 61.210938 C 44.09375 68.148438 46.152344 74.835938 48.675781 81.40625 C 50 84.867188 51.472656 88.261719 53.195312 91.554688 C 59.703125 104.042969 67.484375 115.613281 77.65625 125.492188 C 81.589844 129.320312 85.40625 133.265625 89.855469 136.527344 C 94.808594 140.152344 99.980469 143.414062 105.5 146.121094 C 106.152344 146.441406 106.371094 146.792969 106.304688 147.511719 C 106.152344 149.164062 105.984375 150.855469 106.035156 152.507812 C 106.085938 154.730469 106.203125 156.957031 106.320312 159.179688 C 106.570312 163.460938 106.890625 167.738281 107.609375 171.96875 C 108.363281 176.414062 109.632812 180.695312 111.609375 184.757812 C 112.261719 186.113281 113.128906 187.347656 114.035156 188.554688 C 114.417969 189.054688 114.402344 189.421875 114.050781 189.957031 C 111.074219 194.472656 108.378906 199.152344 106.035156 204.015625 C 105.886719 204.316406 105.75 204.601562 105.484375 204.835938 C 101.148438 208.53125 97.285156 212.710938 93.300781 216.757812 C 89.503906 220.617188 86.007812 224.730469 83.097656 229.3125 C 81.859375 231.269531 80.601562 233.207031 79.546875 235.261719 C 79.214844 235.933594 79.03125 236.097656 78.359375 235.546875 C 73.824219 231.835938 68.855469 228.84375 63.300781 226.90625 C 60.15625 225.816406 57.078125 225.652344 53.730469 226.503906 C 46.234375 228.410156 41.582031 233.191406 38.773438 240.113281 C 37.917969 242.203125 38.003906 244.476562 37.667969 246.648438 C 37.632812 246.882812 37.769531 247.148438 37.5 247.332031 C 37.5 249.003906 37.5 250.675781 37.5 252.347656 C 37.800781 253.621094 37.800781 254.925781 37.984375 256.195312 C 39.125 264.167969 41.132812 271.894531 44.445312 279.265625 C 47.320312 285.652344 51.21875 291.335938 56.222656 296.25 C 59.769531 299.761719 63.152344 303.441406 67.265625 306.316406 C 69.726562 308.039062 72.238281 309.710938 75.015625 310.914062 C 78.5625 312.449219 82.257812 312.703125 86.058594 312.148438 C 89.539062 311.632812 92.582031 310.160156 95.542969 308.386719 C 95.929688 308.171875 96.265625 307.855469 96.566406 307.535156 C 98.605469 305.511719 100.597656 303.457031 102.671875 301.46875 C 103.910156 300.28125 104.796875 298.894531 105.382812 297.304688 C 105.515625 296.9375 105.683594 296.785156 106.085938 296.769531 C 107.207031 296.71875 108.3125 296.636719 109.414062 296.535156 C 109.800781 296.503906 109.953125 296.652344 110.117188 296.953125 C 116.375 308.707031 124.324219 319.238281 133.34375 328.984375 C 136.890625 332.8125 140.589844 336.542969 144.636719 339.886719 C 149.539062 343.914062 155.128906 346.554688 161.167969 348.363281 C 164.246094 349.28125 167.394531 349.898438 170.589844 350.152344 C 170.738281 350.167969 170.941406 350.117188 171.023438 350.316406 C 171.742188 350.316406 172.480469 350.316406 173.199219 350.316406 C 173.316406 350.152344 173.484375 350.183594 173.652344 350.167969 C 177.398438 349.867188 181.03125 349.046875 184.496094 347.558594 C 186.316406 346.773438 188.160156 345.972656 189.613281 344.601562 C 192.039062 342.308594 194.417969 339.9375 196.707031 337.511719 C 198.164062 335.972656 198.816406 333.96875 198.699219 331.910156 C 198.515625 328.75 197.546875 325.726562 196.507812 322.765625 C 194.785156 317.835938 192.324219 313.253906 189.664062 308.773438 C 189.011719 307.667969 188.375 306.566406 187.671875 305.394531 C 191.855469 306.082031 195.871094 306.785156 200.003906 306.449219 C 204.070312 306.113281 208.136719 305.847656 212.253906 305.113281 C 211.183594 307.335938 210.195312 309.425781 209.191406 311.5 C 206.984375 316.046875 205.191406 320.761719 204.203125 325.726562 C 203.703125 328.214844 203.066406 330.707031 203.738281 333.296875 C 204.136719 334.835938 204.824219 336.207031 205.960938 337.34375 C 207.703125 339.082031 209.492188 340.753906 211.148438 342.558594 C 213.140625 344.734375 215.582031 346.171875 218.261719 347.273438 C 223.0625 349.246094 228.03125 350.167969 233.21875 349.332031 C 236.246094 348.847656 239.210938 348.042969 242.085938 346.941406 C 245.667969 345.570312 249.097656 343.882812 252.058594 341.40625 C 256.578125 337.628906 260.777344 333.484375 264.542969 328.96875 C 271.570312 320.558594 277.34375 311.3125 282.144531 301.449219 C 282.3125 301.097656 282.328125 300.648438 282.628906 300.414062 C 284.769531 302.539062 286.914062 304.609375 289.003906 306.734375 C 289.992188 307.738281 291.046875 308.605469 292.265625 309.308594 C 297.152344 312.082031 302.339844 313.285156 307.929688 312.21875 C 311.308594 311.566406 314.203125 309.808594 317.046875 308.019531 C 322.9375 304.308594 327.671875 299.277344 332.375 294.261719 C 338.296875 287.976562 342.214844 280.46875 344.875 272.292969 C 346.515625 267.261719 347.753906 262.113281 348.472656 256.863281 C 348.992188 253.101562 349.273438 249.324219 348.671875 245.546875 C 348.304688 243.15625 347.585938 240.847656 346.796875 238.558594 C 344.574219 232.121094 340.140625 228.007812 333.546875 226.203125 C 332.390625 225.882812 331.203125 226.269531 330.050781 226.085938 C 328.558594 225.851562 327.105469 226.050781 325.664062 226.402344 C 319.960938 227.789062 314.988281 230.683594 310.273438 234.042969 C 307.527344 236 305.203125 238.390625 302.84375 240.765625 C 302.15625 241.449219 302.15625 241.449219 301.789062 240.597656 C 300.183594 237.003906 298.242188 233.609375 296.148438 230.265625 C 293.085938 225.382812 289.488281 220.9375 285.425781 216.839844 C 284.90625 216.304688 284.371094 215.769531 284.117188 215.035156 C 281.84375 208.3125 278.429688 202.160156 274.765625 196.144531 C 272.773438 192.867188 270.632812 189.671875 268.492188 186.480469 C 268.257812 186.128906 268.238281 185.894531 268.472656 185.511719 C 269.628906 183.519531 270.382812 181.363281 271.117188 179.207031 C 272.539062 174.976562 273.242188 170.613281 273.644531 166.199219 C 274.113281 161.152344 274.480469 156.101562 274.378906 151.039062 C 274.3125 148.0625 274.113281 145.085938 273.828125 142.109375 C 273.84375 141.707031 273.863281 141.492188 274.332031 141.339844 Z M 269.058594 135.625 C 267.855469 135.925781 267.085938 137.011719 266.398438 138.046875 C 266.25 138.28125 266.265625 138.566406 266.300781 138.867188 C 266.867188 142.84375 267.117188 146.839844 267.21875 150.855469 C 267.371094 156.804688 266.867188 162.738281 266.230469 168.660156 C 266.214844 168.875 266.132812 169.09375 266.066406 169.308594 C 265.878906 171.902344 265.363281 174.410156 264.640625 176.902344 C 263.773438 179.941406 262.835938 182.96875 261.210938 185.710938 C 261.0625 185.976562 261.128906 186.179688 261.277344 186.394531 C 261.546875 186.8125 261.796875 187.25 262.046875 187.667969 C 263.539062 189.640625 264.859375 191.746094 266.164062 193.835938 C 268.84375 198.082031 271.402344 202.378906 273.578125 206.894531 C 274.917969 209.667969 276.019531 212.542969 277.089844 215.453125 C 278.046875 218.078125 279.199219 220.652344 280.070312 223.308594 C 280.824219 225.601562 281.59375 227.890625 282.210938 230.230469 C 282.761719 232.320312 282.878906 234.511719 283.113281 236.652344 C 283.417969 239.441406 283.765625 242.234375 283.867188 245.027344 C 284.019531 248.554688 284.234375 252.097656 284.050781 255.625 C 283.953125 257.714844 283.953125 259.804688 283.816406 261.878906 C 283.601562 265.121094 283.347656 268.367188 282.996094 271.59375 C 282.597656 275.320312 282.09375 279.03125 281.441406 282.726562 C 281.257812 283.796875 281.039062 284.847656 280.839844 285.917969 C 280.804688 286.085938 280.773438 286.253906 280.753906 286.421875 C 280.671875 287.324219 281.023438 287.875 281.742188 287.992188 C 282.480469 288.109375 283.03125 287.707031 283.199219 286.839844 C 283.566406 284.898438 283.953125 282.976562 284.234375 281.019531 C 284.722656 277.761719 285.171875 274.484375 285.542969 271.207031 C 285.84375 268.550781 286.078125 265.890625 286.226562 263.234375 C 286.445312 259.320312 286.628906 255.390625 286.5625 251.464844 C 286.476562 246.699219 286.195312 241.96875 285.640625 237.234375 C 285.105469 232.640625 284.570312 228.023438 283.601562 223.492188 C 283.566406 223.34375 283.601562 223.175781 283.601562 222.910156 C 284.402344 223.578125 284.886719 224.398438 285.425781 225.148438 C 288.417969 229.3125 291.214844 233.609375 293.472656 238.222656 C 295.09375 241.515625 296.417969 244.960938 297.570312 248.4375 C 297.921875 249.507812 298.675781 250.210938 299.328125 251.011719 C 299.949219 251.628906 300.449219 251.480469 301.019531 250.878906 C 301.753906 250.109375 302.507812 249.355469 303.09375 248.472656 C 305.203125 245.246094 308.046875 242.769531 311.175781 240.578125 C 314.269531 238.40625 317.535156 236.585938 321.015625 235.097656 C 323.390625 234.078125 325.832031 233.273438 328.425781 233.171875 C 331.238281 233.058594 333.714844 234.09375 335.988281 235.679688 C 338.28125 237.285156 339.402344 239.726562 340.539062 242.152344 C 341.328125 243.839844 341.644531 245.644531 341.660156 247.5 C 341.980469 249.65625 341.710938 251.8125 341.59375 253.972656 C 341.007812 260.242188 339.601562 266.324219 337.664062 272.292969 C 335.035156 280.351562 331.121094 287.691406 325.414062 294.011719 C 323.222656 296.433594 320.59375 298.375 317.902344 300.214844 C 315.558594 301.816406 313.148438 303.339844 310.457031 304.292969 C 305.46875 306.03125 300.550781 305.679688 295.699219 303.773438 C 294.277344 303.207031 292.921875 302.503906 291.597656 301.71875 C 289.089844 300.230469 288.234375 297.773438 287.785156 295.113281 C 287.714844 294.730469 287.699219 294.328125 287.734375 293.945312 C 287.882812 292.304688 287.265625 291.035156 285.925781 290.097656 C 285.507812 289.730469 285.074219 289.648438 284.46875 289.730469 C 283.464844 289.898438 282.429688 289.898438 281.390625 289.933594 C 280.972656 289.949219 280.65625 290.082031 280.335938 290.332031 C 279.117188 291.285156 278.394531 292.554688 277.894531 294.011719 C 277.109375 296.316406 276.203125 298.589844 275.132812 300.796875 C 273.960938 303.421875 272.691406 305.980469 271.269531 308.472656 C 267.738281 314.589844 263.941406 320.558594 259.605469 326.160156 C 257.046875 329.46875 254.351562 332.648438 250.886719 335.070312 C 246.972656 337.8125 242.671875 339.734375 238.089844 341.023438 C 235.34375 341.792969 232.566406 342.34375 229.707031 342.394531 C 227.949219 342.445312 226.226562 342.292969 224.5 341.925781 C 221.925781 341.441406 219.449219 340.65625 217.089844 339.519531 C 215.230469 338.566406 213.222656 337.828125 212.019531 335.957031 C 211.867188 335.722656 211.769531 335.472656 211.652344 335.222656 C 210.496094 333.097656 210.460938 330.839844 210.832031 328.515625 C 211.632812 323.316406 213.222656 318.351562 215.367188 313.554688 C 217.941406 307.785156 220.804688 302.152344 224.234375 296.835938 C 224.652344 296.183594 224.734375 295.667969 224.082031 295.164062 C 224.015625 295.113281 223.964844 295.046875 223.914062 294.980469 C 222.726562 293.675781 222.695312 293.660156 221.222656 294.511719 C 217.925781 296.433594 214.34375 297.523438 210.613281 298.125 C 206.765625 298.742188 202.867188 299.160156 198.984375 299.242188 C 192.425781 299.378906 186.015625 298.324219 179.941406 295.683594 C 178.871094 295.214844 177.785156 294.796875 176.832031 294.09375 C 176.480469 293.894531 176.210938 293.925781 175.894531 294.210938 C 175.242188 294.796875 174.605469 295.382812 174.121094 296.117188 C 178.554688 302.035156 182.417969 308.289062 185.816406 314.839844 C 188.226562 319.472656 190.03125 324.320312 191.136719 329.453125 C 191.6875 332.042969 191.4375 334.453125 190.066406 336.742188 C 189.582031 337.5625 188.828125 337.980469 188.058594 338.429688 C 186.503906 339.433594 184.828125 340.253906 183.070312 340.855469 C 180.578125 341.824219 177.984375 342.460938 175.324219 342.726562 C 172.863281 343.210938 170.40625 343.011719 167.960938 342.59375 C 165.652344 342.328125 163.410156 341.792969 161.203125 341.140625 C 155.164062 339.351562 149.589844 336.691406 144.65625 332.714844 C 140.386719 329.285156 136.90625 325.125 133.492188 320.910156 C 129.527344 316.027344 125.796875 310.964844 122.367188 305.679688 C 121.261719 303.976562 120.15625 302.285156 119.269531 300.449219 C 117.480469 297.621094 116.09375 294.597656 114.71875 291.554688 C 114.234375 290.484375 113.363281 289.746094 112.476562 289.011719 C 112.292969 288.863281 112.109375 288.910156 111.925781 288.945312 C 108.746094 289.53125 105.5 289.464844 102.289062 289.730469 C 101.703125 289.78125 101.132812 289.863281 100.597656 290.082031 C 100.582031 290.132812 100.5625 290.199219 100.53125 290.234375 C 98.90625 291.300781 98.875 292.957031 98.707031 294.679688 C 98.421875 297.839844 97.132812 300.414062 94.121094 302.035156 C 90.507812 303.976562 86.710938 305.160156 82.644531 305.230469 C 79.765625 305.277344 76.9375 304.675781 74.3125 303.375 C 70.363281 301.417969 66.78125 298.941406 63.453125 296.082031 C 59.769531 292.925781 57.042969 288.996094 54.566406 284.882812 C 51.121094 279.164062 48.878906 272.945312 47.222656 266.492188 C 46.167969 262.398438 45.296875 258.25 44.945312 254.019531 C 44.609375 250.160156 44.328125 246.265625 45.730469 242.550781 C 47.238281 238.558594 49.496094 235.195312 53.8125 233.660156 C 56.84375 232.570312 59.789062 232.871094 62.734375 233.84375 C 68.875 235.867188 74.261719 239.207031 79.195312 243.339844 C 79.347656 243.457031 79.480469 243.605469 79.632812 243.722656 C 80.785156 244.742188 80.785156 244.742188 81.992188 243.921875 C 82.960938 242.9375 83.5625 241.75 84.101562 240.480469 C 85.554688 237.003906 87.464844 233.777344 89.453125 230.566406 C 92.550781 225.566406 96.214844 221.035156 100.3125 216.839844 C 102.019531 215.085938 103.742188 213.328125 105.667969 211.808594 C 105.886719 211.640625 106.070312 211.421875 106.472656 211.355469 C 106.101562 212.609375 105.75 213.832031 105.398438 215.035156 C 103.828125 220.484375 102.722656 226.019531 101.886719 231.617188 C 101.050781 237.1875 100.546875 242.769531 100.480469 248.386719 C 100.429688 253.234375 100.648438 258.066406 101.21875 262.882812 C 102.003906 269.636719 103.390625 276.238281 105.75 282.625 C 105.835938 282.828125 105.886719 283.042969 105.984375 283.246094 C 106.335938 284.03125 106.957031 284.332031 107.660156 284.0625 C 108.34375 283.796875 108.597656 283.128906 108.292969 282.324219 C 107.441406 280.035156 106.6875 277.710938 106.070312 275.351562 C 105 271.273438 104.261719 267.128906 103.726562 262.933594 C 103.242188 259.035156 103.007812 255.125 102.992188 251.195312 C 102.957031 245.945312 103.175781 240.695312 103.878906 235.464844 C 104.511719 230.78125 105.132812 226.101562 106.320312 221.539062 C 106.921875 219.214844 107.910156 216.992188 108.796875 214.75 C 110.789062 209.734375 112.679688 204.6875 115.253906 199.921875 C 117.179688 196.378906 119.1875 192.882812 121.496094 189.554688 C 121.714844 189.105469 121.464844 188.785156 121.230469 188.4375 C 120.960938 188.050781 120.742188 187.648438 120.492188 187.265625 C 119.054688 185.511719 118.199219 183.46875 117.414062 181.382812 C 115.355469 176.03125 114.453125 170.445312 113.949219 164.761719 C 113.632812 161.019531 113.449219 157.257812 113.332031 153.511719 C 113.230469 150.402344 113.449219 147.292969 113.78125 144.199219 C 113.816406 143.847656 113.78125 143.496094 113.582031 143.246094 C 112.746094 142.242188 111.910156 141.273438 110.570312 140.855469 C 106.320312 139.519531 102.4375 137.363281 98.640625 135.070312 C 94.324219 132.464844 90.171875 129.605469 86.273438 126.394531 C 81.941406 122.832031 78.328125 118.605469 74.863281 114.222656 C 70.511719 108.742188 66.765625 102.839844 63.285156 96.769531 C 60.675781 92.191406 58.332031 87.492188 56.375 82.59375 C 52.726562 73.449219 50.167969 64.019531 49.027344 54.222656 C 48.324219 48.171875 47.722656 42.101562 47.539062 36 C 47.523438 35.28125 47.339844 34.5625 47.421875 33.84375 C 47.4375 33.777344 47.472656 33.691406 47.539062 33.527344 C 48.410156 34.34375 49.210938 35.128906 50.050781 35.882812 C 55.621094 40.933594 61.761719 45.226562 68.035156 49.324219 C 75.433594 54.15625 82.996094 58.703125 90.324219 63.636719 C 90.625 63.835938 90.910156 64.035156 91.109375 64.421875 C 93 68.015625 93.6875 71.976562 94.691406 75.824219 C 95.929688 80.605469 97.101562 85.402344 98.773438 90.050781 C 98.839844 90.25 98.925781 90.433594 98.824219 90.683594 C 98.355469 91.871094 98.289062 93.125 98.273438 94.378906 C 98.253906 97.222656 98.1875 100.0625 98.421875 102.890625 C 98.90625 108.558594 100.546875 113.722656 104.699219 117.851562 C 104.832031 117.984375 104.964844 118.136719 105.117188 118.253906 C 105.550781 118.605469 106.003906 118.636719 106.386719 118.21875 C 106.773438 117.820312 106.722656 117.351562 106.335938 116.949219 C 105.484375 116.0625 104.679688 115.144531 103.960938 114.15625 C 101.851562 111.230469 100.882812 107.90625 100.414062 104.394531 C 99.980469 101.035156 100.027344 97.671875 100.078125 94.3125 C 100.078125 94.195312 100.097656 94.0625 100.113281 93.710938 C 101.117188 95.96875 102.070312 97.992188 103.242188 99.914062 C 104.5625 102.085938 106.085938 104.109375 107.910156 105.882812 C 108.246094 106.199219 108.578125 106.5 109.082031 106.316406 C 109.765625 106.066406 109.902344 105.296875 109.28125 104.710938 C 106.203125 101.734375 104.078125 98.125 102.371094 94.261719 C 100.144531 89.195312 98.589844 83.878906 97.234375 78.53125 C 96.214844 74.46875 95.242188 70.40625 94.023438 66.394531 C 93.988281 66.359375 93.9375 66.292969 93.9375 66.277344 C 94.003906 66.175781 94.054688 66.242188 94.121094 66.292969 C 96.148438 67.53125 98.019531 68.96875 99.929688 70.371094 C 104.511719 73.78125 108.996094 77.308594 112.945312 81.488281 C 115.15625 83.832031 117.144531 86.320312 118.519531 89.265625 C 118.820312 89.914062 119.070312 90.585938 119.1875 91.304688 C 119.269531 91.90625 119.574219 92.421875 120.257812 92.324219 C 120.976562 92.222656 121.09375 91.65625 120.996094 91.054688 C 120.675781 89.179688 119.789062 87.542969 118.785156 85.953125 C 116.109375 81.742188 112.578125 78.3125 108.832031 75.085938 C 99.761719 67.328125 89.722656 60.945312 79.683594 54.574219 C 72.539062 50.042969 65.324219 45.597656 58.550781 40.496094 C 55.320312 38.074219 52.191406 35.5 49.328125 32.640625 C 49.113281 32.421875 48.84375 32.273438 48.746094 31.9375 C 49.113281 31.671875 49.546875 31.71875 49.949219 31.738281 C 59.269531 32.253906 68.605469 32.589844 77.792969 34.410156 C 82.578125 35.363281 87.261719 36.71875 91.914062 38.207031 C 98.957031 40.445312 105.867188 42.988281 112.710938 45.761719 C 118.082031 47.921875 123.136719 50.660156 127.988281 53.804688 C 130.414062 55.375 132.859375 56.929688 135 58.921875 C 135.667969 59.539062 136.136719 60.292969 136.707031 60.960938 C 138.261719 62.78125 138.261719 62.847656 140.421875 62.046875 C 149.15625 58.753906 158.292969 57.148438 167.445312 55.660156 C 173.449219 54.691406 179.472656 53.972656 185.566406 54.121094 C 186.117188 54.089844 186.667969 54.054688 187.222656 54.039062 C 192.257812 53.871094 197.277344 54.089844 202.296875 54.1875 C 205.695312 54.339844 209.074219 54.675781 212.4375 55.175781 C 218.175781 56.011719 223.867188 57.082031 229.519531 58.320312 C 232.984375 59.070312 236.363281 60.058594 239.695312 61.277344 C 239.910156 61.363281 240.097656 61.496094 240.398438 61.328125 C 242.269531 60.273438 244.328125 59.621094 246.335938 58.855469 C 255.457031 55.394531 264.792969 52.820312 274.53125 51.765625 C 281.757812 50.980469 288.988281 50.226562 296.265625 49.925781 C 299.160156 49.808594 302.054688 49.507812 304.949219 49.523438 C 307.894531 49.542969 310.855469 49.742188 313.800781 50.027344 C 321.917969 50.777344 329.914062 52.214844 337.898438 54.003906 C 336.941406 54.171875 335.988281 54.355469 335.019531 54.488281 C 317.066406 56.964844 300.148438 62.53125 284.402344 71.542969 C 276.757812 75.90625 269.527344 80.839844 263.070312 86.855469 C 261.363281 88.460938 259.691406 90.101562 258.183594 91.90625 C 257.796875 92.355469 257.515625 92.839844 258.03125 93.375 C 258.453125 93.8125 259.035156 93.726562 259.539062 93.140625 C 267.050781 84.550781 276.339844 78.246094 286.160156 72.644531 C 286.261719 72.597656 286.359375 72.5625 286.460938 72.527344 C 286.546875 72.429688 286.644531 72.328125 286.761719 72.460938 C 286.78125 72.480469 286.664062 72.597656 286.613281 72.679688 C 282.78125 78.796875 281.058594 85.71875 278.980469 92.507812 C 277.625 96.9375 276.554688 101.46875 274.398438 105.613281 C 273.292969 107.753906 272.003906 109.761719 270.28125 111.464844 C 269.863281 111.882812 269.527344 112.367188 270.046875 112.921875 C 270.582031 113.488281 271.117188 113.238281 271.570312 112.785156 C 273.726562 110.597656 275.316406 108.039062 276.621094 105.261719 C 277.058594 104.34375 277.441406 103.390625 277.894531 102.335938 C 278.3125 103.625 278.347656 104.878906 278.429688 106.082031 C 278.648438 109.742188 278.664062 113.421875 277.695312 117.015625 C 276.992188 119.605469 275.886719 121.980469 273.761719 123.738281 C 273.34375 124.085938 273.277344 124.554688 273.609375 125.007812 C 273.960938 125.457031 274.414062 125.457031 274.867188 125.175781 C 275.5 124.757812 276.003906 124.1875 276.472656 123.601562 C 278.511719 121.078125 279.484375 118.136719 279.96875 114.976562 C 280.386719 112.300781 280.503906 109.609375 280.320312 106.917969 C 280.203125 105.246094 280.035156 103.589844 279.769531 101.953125 C 279.703125 101.46875 279.46875 101.015625 278.882812 101 C 278.394531 101 278.414062 100.765625 278.53125 100.414062 C 280.589844 93.878906 282.246094 87.222656 284.6875 80.804688 C 285.492188 78.664062 286.359375 76.558594 287.582031 74.617188 C 288.050781 73.882812 288.570312 73.199219 289.238281 72.628906 C 289.625 72.296875 289.890625 71.859375 289.539062 71.390625 C 289.222656 70.941406 289.472656 70.855469 289.808594 70.691406 C 292.617188 69.21875 295.480469 67.847656 298.390625 66.59375 C 306.472656 63.101562 314.773438 60.324219 323.390625 58.46875 C 327.972656 57.484375 332.59375 56.695312 337.246094 56.027344 C 338.949219 55.777344 340.65625 55.609375 342.363281 55.308594 C 343 55.191406 343 55.359375 342.917969 55.878906 C 342.164062 60.242188 341.074219 64.539062 339.820312 68.785156 C 338.550781 73.082031 337.128906 77.328125 335.320312 81.441406 C 333.664062 85.167969 331.671875 88.695312 329.515625 92.140625 C 325.53125 98.476562 320.644531 104.078125 315.492188 109.441406 C 309.535156 115.628906 302.976562 121.113281 295.5625 125.476562 C 291.648438 127.78125 287.464844 129.570312 283.183594 131.09375 C 278.496094 132.796875 273.84375 134.417969 269.058594 135.625 Z M 269.058594 135.625 "/>
</g>
<path style=" stroke:none;fill-rule:nonzero;fill:rgb(43.919373%,22.749329%,26.669312%);fill-opacity:1;" d="M 163.160156 109.394531 C 162.425781 106.148438 161.21875 103.105469 158.828125 100.699219 C 156 97.855469 152.519531 97.640625 149.371094 100.097656 C 147.800781 101.335938 146.730469 102.957031 145.910156 104.726562 C 143.816406 109.257812 143.367188 114.039062 144.035156 118.921875 C 144.519531 122.464844 145.640625 125.808594 147.984375 128.617188 C 150.8125 132.011719 154.84375 132.816406 158.324219 129.855469 C 159.246094 129.070312 159.996094 128.148438 160.632812 127.128906 C 162.910156 123.4375 163.730469 119.375 163.746094 115.09375 C 163.746094 113.1875 163.578125 111.28125 163.160156 109.394531 Z M 151.230469 113.6875 C 148.585938 113.707031 146.34375 111.480469 146.3125 108.824219 C 146.277344 106.183594 148.519531 103.941406 151.179688 103.925781 C 153.855469 103.910156 156.066406 106.117188 156.082031 108.789062 C 156.097656 111.464844 153.90625 113.6875 151.230469 113.6875 Z M 151.230469 113.6875 "/>
<path style=" stroke:none;fill-rule:nonzero;fill:rgb(43.919373%,22.749329%,26.669312%);fill-opacity:1;" d="M 238.472656 100.699219 C 235.644531 97.855469 232.148438 97.640625 229.019531 100.097656 C 227.445312 101.335938 226.359375 102.9375 225.554688 104.726562 C 223.097656 110.230469 222.8125 115.914062 224.25 121.695312 C 224.96875 124.605469 226.207031 127.265625 228.351562 129.421875 C 231.160156 132.210938 234.609375 132.414062 237.753906 130.023438 C 238.789062 129.238281 239.59375 128.234375 240.261719 127.148438 C 242.539062 123.453125 243.359375 119.390625 243.375 115.109375 C 243.375 113.203125 243.242188 111.332031 242.824219 109.476562 C 242.070312 106.199219 240.882812 103.140625 238.472656 100.699219 Z M 230.777344 113.65625 C 228.097656 113.605469 225.972656 111.433594 225.992188 108.773438 C 226.007812 106.082031 228.234375 103.890625 230.910156 103.925781 C 233.605469 103.960938 235.8125 106.214844 235.746094 108.875 C 235.660156 111.617188 233.488281 113.707031 230.777344 113.65625 Z M 230.777344 113.65625 "/>
<path style=" stroke:none;fill-rule:nonzero;fill:rgb(43.919373%,22.749329%,26.669312%);fill-opacity:1;" d="M 223.164062 163.242188 C 220.855469 165.113281 218.378906 166.703125 215.617188 167.789062 C 209.710938 170.097656 203.570312 171.300781 197.226562 171.46875 C 196.039062 171.5 195.972656 171.46875 195.988281 170.296875 C 196.023438 168.375 196.105469 166.453125 196.125 164.527344 C 196.125 164.078125 196.289062 163.894531 196.707031 163.808594 C 197.527344 163.644531 198.296875 163.273438 199 162.839844 C 203.316406 160.148438 207.183594 156.957031 210.261719 152.875 C 210.746094 152.242188 211.148438 151.554688 211.148438 150.753906 C 211.097656 146.558594 209.859375 144.585938 206.515625 143.515625 C 198.648438 140.972656 190.769531 140.605469 182.804688 143.296875 C 179.40625 144.449219 177.398438 146.457031 176.980469 150.019531 C 176.980469 150.050781 176.964844 150.066406 176.964844 150.101562 C 176.8125 150.703125 176.929688 151.253906 177.265625 151.773438 C 178.703125 153.996094 180.210938 156.1875 182.234375 157.925781 C 185.113281 160.398438 187.90625 162.972656 191.773438 163.878906 C 192.175781 163.976562 192.140625 164.210938 192.140625 164.496094 C 192.125 166.585938 192.089844 168.675781 192.125 170.765625 C 192.125 171.367188 191.890625 171.515625 191.335938 171.5 C 189.78125 171.449219 188.226562 171.46875 186.667969 171.300781 C 182 170.816406 177.433594 169.894531 173 168.324219 C 169.6875 167.136719 166.707031 165.382812 163.996094 163.140625 C 163.277344 162.554688 162.472656 162.421875 161.671875 162.839844 C 160.933594 163.207031 160.652344 163.878906 160.699219 164.714844 C 160.75 165.648438 161.421875 166.132812 162.023438 166.636719 C 164.433594 168.660156 167.109375 170.214844 170.003906 171.449219 C 171.609375 172.136719 173.316406 172.554688 174.941406 173.222656 C 175.191406 173.257812 175.441406 173.273438 175.675781 173.339844 C 180.996094 174.710938 186.402344 175.578125 191.921875 175.445312 C 192.457031 175.429688 192.660156 175.5625 192.660156 176.132812 C 192.660156 178.988281 192.726562 181.867188 192.777344 184.722656 C 192.910156 192.214844 192.925781 199.703125 192.996094 207.195312 C 192.996094 207.460938 193.011719 207.761719 193.09375 208.011719 C 193.246094 208.496094 193.613281 208.730469 194.117188 208.714844 C 194.617188 208.699219 194.96875 208.429688 195.101562 207.960938 C 195.167969 207.695312 195.167969 207.410156 195.167969 207.144531 C 195.121094 204 195.121094 200.859375 195.050781 197.714844 C 194.902344 190.59375 194.902344 183.453125 194.816406 176.332031 C 194.816406 175.648438 194.96875 175.414062 195.6875 175.445312 C 198.113281 175.5625 200.523438 175.363281 202.933594 175.042969 C 206.546875 174.578125 210.09375 173.808594 213.609375 172.820312 C 213.941406 172.703125 214.277344 172.570312 214.628906 172.453125 C 218.746094 171.082031 222.527344 169.109375 225.773438 166.21875 C 226.777344 165.316406 226.910156 164.109375 226.175781 163.273438 C 225.371094 162.390625 224.234375 162.390625 223.164062 163.242188 Z M 223.164062 163.242188 "/>
<path style=" stroke:none;fill-rule:nonzero;fill:rgb(85.488892%,50.979614%,56.079102%);fill-opacity:1;" d="M 341.710938 247.519531 C 340.609375 246.464844 339.371094 245.761719 337.78125 245.8125 C 335.722656 245.878906 333.964844 247.167969 333.277344 249.191406 C 332.625 251.113281 333.3125 253.234375 335.035156 254.625 C 336.472656 255.777344 338.832031 255.894531 340.457031 254.875 C 340.875 254.605469 341.261719 254.289062 341.679688 254.003906 C 341.761719 251.847656 342.03125 249.691406 341.710938 247.519531 Z M 341.710938 247.519531 "/>
<path style=" stroke:none;fill-rule:nonzero;fill:rgb(85.488892%,50.979614%,56.079102%);fill-opacity:1;" d="M 202.898438 175.042969 C 200.492188 175.363281 198.082031 175.5625 195.65625 175.445312 C 194.933594 175.414062 194.785156 175.648438 194.785156 176.332031 C 194.867188 183.453125 194.867188 190.59375 195.019531 197.714844 C 195.085938 200.859375 195.085938 204 195.136719 207.144531 C 195.136719 207.429688 195.152344 207.710938 195.070312 207.960938 C 194.933594 208.429688 194.582031 208.714844 194.082031 208.714844 C 193.578125 208.730469 193.210938 208.480469 193.0625 208.011719 C 192.976562 207.761719 192.960938 207.460938 192.960938 207.195312 C 192.894531 199.703125 192.878906 192.214844 192.742188 184.722656 C 192.691406 181.867188 192.625 178.988281 192.625 176.132812 C 192.625 175.5625 192.425781 175.429688 191.890625 175.445312 C 186.367188 175.578125 180.980469 174.710938 175.644531 173.339844 C 175.410156 173.273438 175.140625 173.257812 174.90625 173.222656 C 174.890625 173.558594 174.839844 173.890625 174.839844 174.207031 C 174.855469 177.015625 174.941406 179.824219 175.175781 182.617188 C 175.476562 186.210938 175.976562 189.789062 176.898438 193.285156 C 178.167969 198.03125 180.195312 202.378906 183.976562 205.707031 C 185.847656 207.34375 187.992188 208.480469 190.46875 208.914062 C 192.359375 209.25 194.25 208.984375 196.140625 209.066406 C 198.25 209.148438 200.1875 208.449219 201.996094 207.410156 C 205.628906 205.339844 207.953125 202.113281 209.660156 198.398438 C 211.851562 193.636719 212.621094 188.535156 213.15625 183.402344 C 213.507812 179.894531 213.574219 176.347656 213.542969 172.820312 C 210.0625 173.808594 206.515625 174.578125 202.898438 175.042969 Z M 202.898438 175.042969 "/>
<path style=" stroke:none;fill-rule:nonzero;fill:rgb(85.488892%,50.979614%,56.079102%);fill-opacity:1;" d="M 80.972656 278.765625 C 75.414062 278.78125 71.015625 283.027344 71.046875 288.660156 C 71.082031 294.261719 75.382812 298.441406 80.886719 298.476562 C 86.292969 298.507812 90.808594 294.394531 90.824219 288.59375 C 90.808594 282.992188 86.324219 278.832031 80.972656 278.765625 Z M 80.972656 278.765625 "/>
<path style=" stroke:none;fill-rule:nonzero;fill:rgb(85.488892%,50.979614%,56.079102%);fill-opacity:1;" d="M 65.792969 239.894531 C 62.714844 239.894531 60.039062 242.519531 60.121094 245.613281 C 60.207031 248.753906 62.363281 251.296875 65.792969 251.296875 C 69.242188 251.296875 71.332031 248.738281 71.484375 245.613281 C 71.484375 242.519531 68.875 239.894531 65.792969 239.894531 Z M 65.792969 239.894531 "/>
<path style=" stroke:none;fill-rule:nonzero;fill:rgb(85.488892%,50.979614%,56.079102%);fill-opacity:1;" d="M 51.523438 246.214844 C 48.878906 246.195312 46.734375 248.371094 46.71875 250.960938 C 46.703125 253.652344 48.894531 255.894531 51.570312 255.828125 C 54.417969 255.761719 56.441406 253.453125 56.289062 251.027344 C 56.441406 248.519531 54.316406 246.230469 51.523438 246.214844 Z M 51.523438 246.214844 "/>
<path style=" stroke:none;fill-rule:nonzero;fill:rgb(85.488892%,50.979614%,56.079102%);fill-opacity:1;" d="M 77.957031 260.15625 C 80.316406 260.140625 82.007812 258.183594 81.875 256.246094 C 82.058594 253.972656 80.050781 252.214844 78.007812 252.199219 C 75.785156 252.183594 73.992188 253.902344 73.976562 256.109375 C 73.976562 258.382812 75.699219 260.171875 77.957031 260.15625 Z M 77.957031 260.15625 "/>
<path style=" stroke:none;fill-rule:nonzero;fill:rgb(85.488892%,50.979614%,56.079102%);fill-opacity:1;" d="M 308.546875 278.347656 C 302.824219 278.347656 298.675781 282.710938 298.574219 288.226562 C 298.476562 293.675781 302.992188 298.171875 308.464844 298.191406 C 313.984375 298.207031 318.46875 293.808594 318.4375 288.328125 C 318.402344 282.792969 314.1875 278.363281 308.546875 278.347656 Z M 308.546875 278.347656 "/>
<path style=" stroke:none;fill-rule:nonzero;fill:rgb(85.488892%,50.979614%,56.079102%);fill-opacity:1;" d="M 323.625 239.511719 C 320.496094 239.527344 317.917969 242.117188 317.917969 245.277344 C 317.917969 248.472656 320.429688 251.011719 323.605469 251.027344 C 326.769531 251.046875 329.347656 248.488281 329.363281 245.328125 C 329.378906 242.117188 326.785156 239.492188 323.625 239.511719 Z M 323.625 239.511719 "/>
<path style=" stroke:none;fill-rule:nonzero;fill:rgb(85.488892%,50.979614%,56.079102%);fill-opacity:1;" d="M 311.476562 259.890625 C 313.734375 259.890625 315.574219 258.066406 315.574219 255.808594 C 315.574219 253.652344 313.703125 251.832031 311.476562 251.847656 C 309.269531 251.847656 307.394531 253.703125 307.425781 255.859375 C 307.460938 258.101562 309.269531 259.890625 311.476562 259.890625 Z M 311.476562 259.890625 "/>
<path style=" stroke:none;fill-rule:nonzero;fill:rgb(99.609375%,97.648621%,91.758728%);fill-opacity:1;" d="M 256.894531 305.546875 C 253.96875 306.03125 251.003906 306.382812 248.058594 306.449219 C 244.964844 306.515625 241.953125 305.949219 239.410156 303.839844 C 236.179688 301.167969 233.753906 297.972656 232.296875 294.0625 C 231.714844 292.488281 231.394531 290.851562 231.445312 289.164062 C 230.609375 290.015625 230.125 291.136719 229.238281 291.953125 C 228.265625 292.855469 227.160156 293.042969 226.242188 292.355469 C 225.136719 291.535156 224.835938 290.417969 225.488281 289.210938 C 226.273438 287.773438 227.347656 286.519531 228.300781 285.199219 C 231.34375 281.003906 234.40625 276.824219 237.453125 272.628906 C 239.328125 270.054688 241.148438 267.429688 243.039062 264.855469 C 243.59375 264.101562 244.429688 263.601562 245.433594 263.800781 C 246.488281 264 247.375 264.9375 247.492188 265.957031 C 247.574219 266.625 247.207031 267.195312 246.855469 267.714844 C 245.082031 270.40625 243.15625 272.980469 241.265625 275.570312 C 239.746094 277.675781 238.207031 279.785156 236.683594 281.90625 C 236.582031 282.039062 236.296875 282.191406 236.480469 282.457031 C 241.417969 279.601562 246.707031 277.394531 251.523438 274.316406 C 253.480469 273.0625 255.238281 271.574219 256.894531 269.953125 C 260.945312 266.007812 264.84375 261.929688 268.191406 257.363281 C 268.976562 256.292969 269.679688 255.140625 270.363281 254.003906 C 271.855469 251.546875 271.71875 249.023438 270.449219 246.546875 C 269.328125 244.359375 267.972656 242.351562 266.015625 240.78125 C 264.058594 239.226562 262.984375 239.226562 261.042969 240.949219 C 259.722656 242.132812 258.417969 243.355469 257.097656 244.542969 C 256.761719 244.84375 256.410156 245.109375 256.023438 245.34375 C 255.40625 245.746094 254.703125 245.847656 254.050781 245.476562 C 253.363281 245.09375 253.164062 244.425781 253.214844 243.6875 C 253.332031 242.183594 253.75 240.746094 254.152344 239.308594 C 255.523438 234.3125 257.113281 229.363281 258.300781 224.3125 C 259.121094 220.871094 259.808594 217.390625 260.125 213.847656 C 260.273438 212.210938 260.359375 210.570312 260.34375 208.949219 C 260.324219 206.125 260.226562 203.296875 259.957031 200.472656 C 259.773438 198.433594 259.621094 196.394531 259.40625 194.355469 C 259.355469 193.800781 259.289062 193.25 259.222656 192.699219 C 258.03125 194.054688 257.011719 195.523438 255.824219 196.894531 C 253.949219 199.070312 251.941406 201.089844 249.835938 203.03125 C 247.023438 205.605469 244.027344 207.945312 240.949219 210.167969 C 236.832031 213.144531 232.53125 215.871094 228.183594 218.496094 C 225.503906 220.117188 222.511719 220.71875 219.597656 221.589844 C 214.980469 222.976562 210.261719 223.980469 205.527344 224.949219 C 205.394531 224.980469 205.292969 225.066406 205.160156 225.117188 C 207.265625 227.972656 208.40625 231.199219 208.472656 234.726562 C 208.554688 238.507812 207.484375 241.984375 205.191406 245.011719 C 202.734375 248.269531 199.503906 250.425781 195.503906 251.429688 C 194.769531 251.613281 194.601562 251.445312 194.582031 250.710938 C 194.515625 248.371094 194.382812 246.046875 194.449219 243.707031 C 194.484375 242.519531 194.566406 241.316406 194.601562 240.128906 C 194.617188 239.777344 194.816406 239.578125 195.003906 239.34375 C 195.972656 238.039062 196.089844 236.617188 195.453125 235.164062 C 194.800781 233.675781 193.511719 232.941406 191.957031 232.855469 C 190.683594 232.789062 188.996094 233.507812 188.257812 235.113281 C 187.589844 236.585938 187.742188 238.441406 188.828125 239.441406 C 189.582031 240.144531 189.796875 240.878906 189.765625 241.867188 C 189.699219 244.125 189.765625 246.382812 189.730469 248.636719 C 189.730469 249.492188 189.632812 250.359375 189.597656 251.210938 C 189.582031 251.796875 189.210938 251.714844 188.84375 251.648438 C 186.21875 251.113281 183.792969 250.125 181.667969 248.488281 C 178.386719 245.964844 176.226562 242.71875 175.375 238.675781 C 174.304688 233.574219 175.425781 228.960938 178.539062 224.796875 C 175.625 224.296875 172.714844 223.710938 169.851562 222.925781 C 169.199219 222.742188 168.613281 222.441406 168.0625 222.054688 C 167.476562 221.65625 166.890625 221.421875 166.121094 221.503906 C 165.4375 221.589844 164.816406 221.101562 164.179688 220.851562 C 158.039062 218.460938 152.316406 215.25 146.894531 211.558594 C 144.21875 209.71875 141.675781 207.730469 139.25 205.554688 C 138.429688 204.820312 137.675781 204 136.890625 203.230469 C 136.539062 204.871094 136.65625 206.558594 136.621094 208.214844 C 136.589844 210.035156 136.707031 211.875 136.839844 213.695312 C 137.175781 218.175781 138.164062 222.523438 139.285156 226.835938 C 140.4375 231.285156 141.792969 235.699219 143.03125 240.128906 C 143.316406 241.113281 143.535156 242.117188 143.699219 243.121094 C 143.851562 243.992188 143.816406 244.910156 142.964844 245.445312 C 142.128906 245.980469 141.308594 245.695312 140.570312 245.128906 C 139.566406 244.375 138.648438 243.523438 137.761719 242.636719 C 136.824219 241.714844 135.851562 240.847656 134.75 240.128906 C 133.746094 239.476562 132.773438 239.460938 131.804688 240.128906 C 129.394531 241.785156 127.738281 244.039062 126.484375 246.632812 C 125.964844 247.71875 125.578125 248.839844 125.496094 250.042969 C 125.363281 252.015625 126.347656 253.636719 127.320312 255.226562 C 129.058594 258.050781 131.183594 260.574219 133.410156 263.03125 C 135.300781 265.121094 137.242188 267.144531 139.214844 269.152344 C 142.949219 272.964844 147.414062 275.671875 152.132812 278.0625 C 155.179688 279.617188 158.324219 280.988281 161.152344 282.945312 C 162.324219 283.746094 163.476562 284.546875 164.316406 285.734375 C 165.671875 287.675781 165.703125 289.78125 165.234375 291.953125 C 164.464844 295.597656 162.589844 298.640625 160.132812 301.367188 C 158.507812 303.171875 156.632812 304.710938 154.34375 305.628906 C 153.054688 306.148438 151.699219 306.25 150.34375 306.316406 C 146.261719 306.5 142.226562 305.863281 138.210938 305.195312 C 133.996094 304.492188 129.8125 303.574219 125.761719 302.21875 C 123.621094 301.515625 121.464844 300.933594 119.269531 300.464844 C 120.15625 302.304688 121.261719 303.992188 122.367188 305.695312 C 125.796875 310.980469 129.527344 316.046875 133.492188 320.925781 C 136.90625 325.140625 140.386719 329.304688 144.65625 332.730469 C 149.605469 336.710938 155.179688 339.367188 161.203125 341.15625 C 163.429688 341.808594 165.671875 342.34375 167.960938 342.609375 C 167.828125 341.976562 167.277344 341.675781 166.875 341.289062 C 162.523438 337.042969 159.980469 331.8125 158.359375 326.058594 C 158.023438 324.890625 158.542969 323.734375 159.53125 323.082031 C 160.882812 322.199219 162.492188 323.285156 162.925781 324.539062 C 163.34375 325.742188 163.664062 326.980469 164.128906 328.167969 C 165.402344 331.425781 167.109375 334.402344 169.46875 337.027344 C 171.175781 338.898438 173.117188 340.503906 174.988281 342.191406 C 175.15625 342.34375 175.324219 342.492188 175.339844 342.746094 C 178.003906 342.460938 180.59375 341.824219 183.089844 340.871094 C 183.070312 340.238281 183.003906 339.585938 183.039062 338.949219 C 183.222656 335.386719 181.96875 332.230469 180.246094 329.234375 C 178.703125 326.5625 177.03125 323.96875 175.425781 321.34375 C 174.203125 319.339844 175.324219 317.902344 176.8125 317.464844 C 177.601562 317.234375 178.855469 317.699219 179.339844 318.535156 C 181.363281 322.046875 183.808594 325.324219 185.566406 328.984375 C 186.921875 331.777344 187.875 334.6875 187.890625 337.847656 C 187.890625 338.0625 187.855469 338.296875 188.074219 338.449219 C 188.84375 337.996094 189.582031 337.578125 190.082031 336.757812 C 191.453125 334.46875 191.707031 332.0625 191.152344 329.46875 C 190.050781 324.355469 188.257812 319.488281 185.832031 314.859375 C 182.417969 308.320312 178.554688 302.050781 174.136719 296.132812 C 173.097656 296.25 172.664062 295.449219 172.179688 294.8125 C 170.019531 291.953125 167.929688 289.0625 165.804688 286.1875 C 161.820312 280.820312 157.804688 275.46875 154.160156 269.871094 C 153.757812 269.25 153.355469 268.597656 153.039062 267.914062 C 152.453125 266.644531 152.9375 265.273438 154.160156 264.652344 C 155.261719 264.085938 156.519531 264.46875 157.238281 265.640625 C 161.085938 271.925781 165.585938 277.726562 169.953125 283.644531 C 172.128906 286.589844 174.40625 289.445312 176.394531 292.523438 C 176.714844 293.007812 176.8125 293.527344 176.847656 294.09375 C 177.800781 294.78125 178.890625 295.214844 179.960938 295.683594 C 186.035156 298.324219 192.425781 299.359375 199 299.242188 C 202.898438 299.175781 206.78125 298.757812 210.628906 298.125 C 214.363281 297.523438 217.941406 296.433594 221.238281 294.511719 C 222.710938 293.644531 222.746094 293.675781 223.933594 294.980469 C 223.984375 295.046875 224.03125 295.113281 224.101562 295.164062 C 224.753906 295.667969 224.667969 296.183594 224.25 296.835938 C 220.820312 302.152344 217.960938 307.785156 215.382812 313.554688 C 213.242188 318.351562 211.652344 323.316406 210.847656 328.515625 C 210.496094 330.839844 210.511719 333.097656 211.667969 335.222656 C 211.933594 334.871094 211.816406 334.46875 211.800781 334.101562 C 211.632812 328.132812 213.59375 322.765625 216.417969 317.632812 C 216.972656 316.628906 217.507812 315.628906 218.242188 314.757812 C 218.863281 314.023438 219.632812 313.402344 220.667969 313.621094 C 222.511719 313.972656 223.230469 316.0625 222.09375 317.683594 C 219.382812 321.480469 217.675781 325.691406 216.871094 330.273438 C 216.453125 332.628906 216.636719 335.019531 216.9375 337.394531 C 217.023438 338.097656 217.273438 338.800781 217.121094 339.535156 C 219.480469 340.671875 221.957031 341.441406 224.535156 341.941406 C 226.109375 338.582031 226.644531 334.871094 228.066406 331.460938 C 228.984375 329.285156 229.890625 327.078125 231.5625 325.339844 C 232.902344 323.9375 235.144531 324.554688 235.660156 326.410156 C 235.863281 327.144531 235.578125 327.765625 235.195312 328.285156 C 232.71875 331.695312 231.644531 335.65625 230.558594 339.636719 C 230.308594 340.570312 229.789062 341.421875 229.722656 342.410156 C 232.582031 342.34375 235.359375 341.808594 238.105469 341.039062 C 242.691406 339.734375 246.988281 337.828125 250.90625 335.085938 C 254.386719 332.664062 257.0625 329.488281 259.621094 326.175781 C 263.957031 320.578125 267.753906 314.625 271.285156 308.488281 C 272.722656 306.015625 273.996094 303.441406 275.148438 300.816406 C 274.046875 301 273.074219 301.601562 272.019531 301.953125 C 267.136719 303.605469 262.046875 304.710938 256.894531 305.546875 Z M 256.894531 305.546875 "/>
<path style=" stroke:none;fill-rule:nonzero;fill:rgb(99.609375%,97.648621%,91.758728%);fill-opacity:1;" d="M 120.492188 187.382812 C 120.742188 187.765625 120.960938 188.167969 121.230469 188.554688 C 121.464844 188.902344 121.730469 189.222656 121.496094 189.671875 C 122.484375 192.597656 124.828125 194.289062 127.152344 196.027344 C 130.148438 198.25 133.328125 200.171875 136.589844 201.976562 C 136.707031 202.042969 136.808594 202.144531 136.925781 202.226562 C 138.113281 202.664062 139.183594 203.316406 140.304688 203.851562 C 145.308594 206.242188 150.511719 208.097656 155.847656 209.601562 C 160.632812 210.9375 165.484375 211.957031 170.371094 212.726562 C 172.914062 213.128906 175.476562 213.394531 178.035156 213.628906 C 183.421875 214.132812 188.8125 214.199219 194.199219 214.082031 C 197.527344 214.015625 200.839844 213.8125 204.15625 213.480469 C 210.695312 212.8125 217.140625 211.605469 223.496094 209.933594 C 228.550781 208.597656 233.488281 206.894531 238.273438 204.769531 C 243.039062 202.644531 247.574219 200.121094 251.859375 197.144531 C 254.132812 195.558594 256.359375 193.902344 258.300781 191.878906 C 258.5 191.664062 258.6875 191.394531 259.035156 191.363281 C 259.789062 190.425781 260.542969 189.472656 261.3125 188.554688 C 261.5625 188.253906 261.679688 187.867188 262.066406 187.683594 C 261.816406 187.265625 261.5625 186.832031 261.277344 186.414062 C 261.128906 186.195312 261.0625 185.996094 261.210938 185.726562 C 262.835938 182.984375 263.773438 179.960938 264.640625 176.917969 C 265.363281 174.425781 265.878906 171.917969 266.066406 169.328125 C 265.628906 169.007812 265.546875 168.492188 265.292969 168.054688 C 264.976562 167.503906 264.675781 166.9375 264.175781 166.5 C 262.75 165.296875 261.328125 164.09375 259.90625 162.890625 C 256.375 159.863281 252.695312 157.054688 248.878906 154.398438 C 243.324219 150.535156 237.417969 147.242188 231.496094 143.984375 C 226.925781 141.457031 222.644531 138.566406 219.230469 134.503906 C 216.953125 131.792969 215.046875 128.871094 213.507812 125.726562 C 211.71875 122.082031 210.429688 118.21875 209.390625 114.292969 C 207.367188 106.699219 206.113281 98.960938 205.191406 91.167969 C 204.789062 87.84375 204.488281 84.5 204.1875 81.171875 C 203.871094 77.613281 203.601562 74.050781 203.351562 70.472656 C 203.152344 67.480469 203.050781 64.488281 202.800781 61.496094 C 202.714844 60.441406 202.632812 59.390625 202.566406 58.351562 C 202.480469 56.996094 202.179688 55.660156 202.3125 54.304688 C 197.292969 54.207031 192.257812 53.988281 187.238281 54.15625 C 186.6875 54.171875 186.132812 54.207031 185.582031 54.238281 C 185.582031 54.40625 185.613281 54.574219 185.582031 54.742188 C 185.214844 57.601562 185.097656 60.492188 184.914062 63.367188 C 184.796875 65.105469 184.695312 66.863281 184.5625 68.601562 C 184.34375 71.859375 184.027344 75.121094 183.757812 78.378906 C 183.574219 80.652344 183.472656 82.929688 183.222656 85.183594 C 182.804688 88.8125 182.4375 92.457031 181.933594 96.066406 C 181.214844 101.285156 180.292969 106.46875 179.039062 111.582031 C 177.550781 117.652344 175.675781 123.570312 172.480469 128.984375 C 169.652344 133.769531 165.988281 137.761719 161.371094 140.890625 C 157.421875 143.546875 153.136719 145.652344 149.019531 148.046875 C 144.6875 150.570312 140.453125 153.226562 136.40625 156.171875 C 132.875 158.746094 129.445312 161.4375 126.148438 164.296875 C 124.441406 165.78125 122.703125 167.1875 121.746094 169.410156 C 119.707031 174.207031 118.769531 179.074219 119.789062 184.257812 C 120.007812 185.277344 120.492188 186.28125 120.492188 187.382812 Z M 161.65625 162.839844 C 162.472656 162.421875 163.277344 162.554688 163.980469 163.140625 C 166.691406 165.382812 169.667969 167.136719 172.980469 168.324219 C 177.417969 169.894531 181.984375 170.816406 186.652344 171.300781 C 188.207031 171.46875 189.765625 171.433594 191.320312 171.5 C 191.875 171.515625 192.105469 171.382812 192.105469 170.765625 C 192.089844 168.675781 192.125 166.585938 192.125 164.496094 C 192.125 164.210938 192.15625 163.960938 191.757812 163.878906 C 187.90625 162.972656 185.097656 160.382812 182.21875 157.925781 C 180.195312 156.1875 178.6875 153.996094 177.25 151.773438 C 176.914062 151.253906 176.796875 150.703125 176.949219 150.101562 C 176.949219 150.066406 176.964844 150.050781 176.964844 150.019531 C 177.382812 146.457031 179.390625 144.449219 182.789062 143.296875 C 190.753906 140.605469 198.632812 140.972656 206.496094 143.515625 C 209.828125 144.585938 211.082031 146.574219 211.132812 150.753906 C 211.148438 151.554688 210.730469 152.242188 210.246094 152.875 C 207.148438 156.957031 203.285156 160.148438 198.984375 162.839844 C 198.28125 163.273438 197.511719 163.644531 196.691406 163.808594 C 196.273438 163.894531 196.105469 164.0625 196.105469 164.527344 C 196.089844 166.453125 196.007812 168.375 195.972656 170.296875 C 195.957031 171.46875 196.023438 171.5 197.210938 171.46875 C 203.550781 171.300781 209.691406 170.097656 215.601562 167.789062 C 218.378906 166.703125 220.835938 165.097656 223.144531 163.242188 C 224.21875 162.371094 225.355469 162.390625 226.125 163.257812 C 226.859375 164.09375 226.726562 165.296875 225.722656 166.199219 C 222.476562 169.109375 218.695312 171.082031 214.578125 172.4375 C 214.246094 172.554688 213.894531 172.6875 213.558594 172.804688 C 213.589844 176.332031 213.523438 179.875 213.171875 183.386719 C 212.65625 188.535156 211.867188 193.636719 209.675781 198.382812 C 207.96875 202.09375 205.644531 205.304688 202.011719 207.394531 C 200.207031 208.429688 198.265625 209.132812 196.15625 209.050781 C 194.265625 208.964844 192.375 209.234375 190.484375 208.898438 C 187.992188 208.464844 185.867188 207.34375 183.992188 205.6875 C 180.210938 202.363281 178.167969 198.03125 176.914062 193.265625 C 175.992188 189.773438 175.492188 186.210938 175.191406 182.601562 C 174.957031 179.792969 174.871094 177 174.855469 174.191406 C 174.855469 173.859375 174.90625 173.523438 174.921875 173.207031 C 173.300781 172.535156 171.59375 172.117188 169.988281 171.433594 C 167.09375 170.195312 164.414062 168.640625 162.003906 166.617188 C 161.402344 166.101562 160.734375 165.617188 160.683594 164.695312 C 160.652344 163.878906 160.917969 163.207031 161.65625 162.839844 Z M 161.65625 162.839844 "/>
<path style=" stroke:none;fill-rule:nonzero;fill:rgb(99.609375%,97.648621%,91.758728%);fill-opacity:1;" d="M 97.433594 273.398438 C 96.195312 269.535156 94.707031 265.757812 93.035156 262.0625 C 90.59375 256.664062 87.8125 251.445312 84.183594 246.714844 C 83.480469 245.796875 82.578125 245.027344 82.007812 244.007812 C 80.820312 244.828125 80.820312 244.828125 79.648438 243.804688 C 79.5 243.671875 79.363281 243.539062 79.214844 243.421875 C 74.292969 239.292969 68.890625 235.949219 62.75 233.925781 C 59.804688 232.957031 56.859375 232.65625 53.832031 233.742188 C 49.515625 235.28125 47.253906 238.640625 45.75 242.636719 C 44.34375 246.347656 44.628906 250.257812 44.960938 254.105469 C 45.332031 258.335938 46.183594 262.464844 47.238281 266.578125 C 48.894531 273.011719 51.136719 279.230469 54.582031 284.964844 C 57.058594 289.078125 59.789062 292.992188 63.46875 296.167969 C 66.796875 299.027344 70.378906 301.5 74.328125 303.457031 C 76.953125 304.761719 79.765625 305.363281 82.660156 305.3125 C 86.726562 305.246094 90.523438 304.058594 94.140625 302.121094 C 97.152344 300.496094 98.4375 297.921875 98.722656 294.761719 C 98.890625 293.042969 98.925781 291.386719 100.546875 290.316406 C 100.582031 290.28125 100.597656 290.214844 100.613281 290.164062 C 100.5625 288.578125 100.3125 287.023438 100.097656 285.46875 C 99.527344 281.371094 98.691406 277.328125 97.433594 273.398438 Z M 51.570312 255.84375 C 48.894531 255.894531 46.703125 253.671875 46.71875 250.976562 C 46.734375 248.386719 48.878906 246.214844 51.523438 246.230469 C 54.316406 246.246094 56.457031 248.519531 56.273438 251.0625 C 56.441406 253.453125 54.417969 255.777344 51.570312 255.84375 Z M 78.007812 252.214844 C 80.050781 252.230469 82.058594 253.988281 81.875 256.261719 C 82.007812 258.199219 80.300781 260.140625 77.957031 260.171875 C 75.699219 260.191406 73.976562 258.382812 73.992188 256.128906 C 73.992188 253.921875 75.785156 252.199219 78.007812 252.214844 Z M 65.792969 251.296875 C 62.363281 251.296875 60.207031 248.753906 60.121094 245.613281 C 60.039062 242.519531 62.714844 239.894531 65.792969 239.894531 C 68.875 239.894531 71.484375 242.519531 71.484375 245.613281 C 71.332031 248.738281 69.242188 251.296875 65.792969 251.296875 Z M 80.871094 298.476562 C 75.367188 298.441406 71.082031 294.277344 71.03125 288.660156 C 71 283.027344 75.414062 278.796875 80.953125 278.765625 C 86.308594 278.8125 90.792969 282.992188 90.792969 288.578125 C 90.808594 294.394531 86.273438 298.507812 80.871094 298.476562 Z M 80.871094 298.476562 "/>
<path style=" stroke:none;fill-rule:nonzero;fill:rgb(99.609375%,97.648621%,91.758728%);fill-opacity:1;" d="M 335.019531 254.625 C 333.296875 253.253906 332.609375 251.128906 333.261719 249.191406 C 333.949219 247.167969 335.722656 245.878906 337.761719 245.8125 C 339.371094 245.761719 340.589844 246.464844 341.695312 247.519531 C 341.679688 245.664062 341.359375 243.855469 340.574219 242.167969 C 339.453125 239.742188 338.316406 237.304688 336.023438 235.699219 C 333.765625 234.109375 331.269531 233.074219 328.460938 233.191406 C 325.867188 233.289062 323.421875 234.09375 321.046875 235.113281 C 317.582031 236.601562 314.304688 238.421875 311.207031 240.597656 C 308.078125 242.785156 305.234375 245.261719 303.125 248.488281 C 302.542969 249.375 301.789062 250.125 301.050781 250.894531 C 300.484375 251.496094 299.980469 251.648438 299.363281 251.027344 C 299.277344 251.230469 299.226562 251.445312 299.109375 251.648438 C 297.304688 254.554688 295.699219 257.566406 294.257812 260.691406 C 291.332031 267.027344 288.753906 273.496094 287.363281 280.386719 C 286.710938 283.613281 286.144531 286.855469 285.960938 290.164062 C 287.296875 291.101562 287.917969 292.371094 287.765625 294.011719 C 287.734375 294.394531 287.75 294.796875 287.816406 295.179688 C 288.269531 297.855469 289.121094 300.296875 291.632812 301.785156 C 292.953125 302.570312 294.308594 303.273438 295.730469 303.839844 C 300.582031 305.746094 305.519531 306.113281 310.488281 304.359375 C 313.183594 303.40625 315.59375 301.886719 317.933594 300.28125 C 320.613281 298.441406 323.257812 296.503906 325.449219 294.078125 C 331.152344 287.757812 335.070312 280.417969 337.695312 272.359375 C 339.636719 266.394531 341.042969 260.289062 341.628906 254.039062 C 341.226562 254.320312 340.839844 254.640625 340.40625 254.90625 C 338.816406 255.894531 336.457031 255.777344 335.019531 254.625 Z M 311.476562 251.847656 C 313.703125 251.847656 315.574219 253.652344 315.574219 255.808594 C 315.574219 258.066406 313.734375 259.890625 311.476562 259.890625 C 309.269531 259.890625 307.476562 258.101562 307.425781 255.859375 C 307.394531 253.703125 309.269531 251.847656 311.476562 251.847656 Z M 308.464844 298.191406 C 302.992188 298.171875 298.476562 293.691406 298.574219 288.226562 C 298.675781 282.710938 302.824219 278.347656 308.546875 278.347656 C 314.171875 278.347656 318.402344 282.792969 318.4375 288.308594 C 318.46875 293.808594 313.984375 298.207031 308.464844 298.191406 Z M 323.605469 251.027344 C 320.429688 251.011719 317.917969 248.472656 317.917969 245.277344 C 317.917969 242.117188 320.476562 239.527344 323.625 239.511719 C 326.785156 239.492188 329.378906 242.117188 329.363281 245.328125 C 329.347656 248.488281 326.785156 251.046875 323.605469 251.027344 Z M 323.605469 251.027344 "/>
<path style=" stroke:none;fill-rule:nonzero;fill:rgb(99.609375%,97.648621%,91.758728%);fill-opacity:1;" d="M 155.261719 80.769531 C 156.265625 82.207031 157.136719 83.730469 157.65625 85.433594 C 157.824219 85.96875 158.191406 86.339844 158.777344 86.171875 C 159.3125 86.003906 159.5625 85.570312 159.378906 84.984375 C 159.226562 84.5 159.109375 84.015625 158.910156 83.5625 C 158.140625 81.707031 157.019531 80.035156 155.796875 78.449219 C 154.792969 77.109375 153.789062 75.789062 152.617188 74.585938 C 152.367188 74.316406 152.050781 74.066406 151.664062 74.269531 C 151.332031 74.433594 151.078125 74.703125 151.113281 75.136719 C 151.078125 75.453125 151.246094 75.6875 151.449219 75.941406 C 152.785156 77.496094 154.089844 79.082031 155.261719 80.769531 Z M 155.261719 80.769531 "/>
<path style=" stroke:none;fill-rule:nonzero;fill:rgb(99.609375%,97.648621%,91.758728%);fill-opacity:1;" d="M 147.347656 80.585938 C 148.570312 81.40625 149.722656 82.324219 150.761719 83.378906 C 151.898438 84.53125 153.054688 85.652344 153.925781 87.023438 C 154.160156 87.390625 154.460938 87.808594 154.996094 87.625 C 155.414062 87.476562 155.679688 87.15625 155.628906 86.65625 C 155.648438 86.421875 155.546875 86.222656 155.414062 86.039062 C 153.488281 83.261719 151.113281 80.9375 148.335938 79.050781 C 147.832031 78.714844 147.214844 78.546875 146.78125 79.167969 C 146.3125 79.851562 146.863281 80.269531 147.347656 80.585938 Z M 147.347656 80.585938 "/>
<path style=" stroke:none;fill-rule:nonzero;fill:rgb(99.609375%,97.648621%,91.758728%);fill-opacity:1;" d="M 229.503906 88.445312 C 230.191406 88.730469 230.523438 88.277344 230.808594 87.757812 C 231.945312 85.703125 233.503906 83.964844 235.125 82.292969 C 236.480469 80.90625 237.902344 79.566406 239.644531 78.648438 C 240.113281 78.398438 240.230469 77.996094 240.097656 77.511719 C 239.980469 77.109375 239.675781 76.941406 239.257812 76.960938 C 238.640625 77.058594 238.121094 77.378906 237.621094 77.726562 C 235.914062 78.933594 234.375 80.351562 232.984375 81.890625 C 231.597656 83.429688 230.242188 85.015625 229.203125 86.839844 C 228.835938 87.523438 228.953125 88.210938 229.503906 88.445312 Z M 229.503906 88.445312 "/>
<path style=" stroke:none;fill-rule:nonzero;fill:rgb(99.609375%,97.648621%,91.758728%);fill-opacity:1;" d="M 234.574219 88.128906 C 234.289062 88.410156 234.1875 88.746094 234.355469 89.113281 C 234.523438 89.449219 234.824219 89.582031 235.175781 89.546875 C 235.445312 89.566406 235.679688 89.496094 235.894531 89.332031 C 237.484375 88.160156 239.226562 87.207031 240.964844 86.289062 C 241.453125 86.019531 241.835938 85.6875 241.550781 85.101562 C 241.265625 84.5 240.765625 84.367188 240.144531 84.683594 C 238.992188 85.25 237.871094 85.871094 236.800781 86.574219 C 236.0625 87.058594 235.226562 87.476562 234.574219 88.128906 Z M 234.574219 88.128906 "/>
<path style=" stroke:none;fill-rule:nonzero;fill:rgb(99.609375%,97.648621%,91.758728%);fill-opacity:1;" d="M 151.230469 113.6875 C 153.90625 113.671875 156.097656 111.464844 156.097656 108.773438 C 156.097656 106.097656 153.875 103.910156 151.195312 103.910156 C 148.519531 103.925781 146.292969 106.164062 146.328125 108.808594 C 146.34375 111.5 148.585938 113.707031 151.230469 113.6875 Z M 151.230469 113.6875 "/>
<path style=" stroke:none;fill-rule:nonzero;fill:rgb(99.609375%,97.648621%,91.758728%);fill-opacity:1;" d="M 230.777344 113.65625 C 233.503906 113.707031 235.679688 111.597656 235.746094 108.859375 C 235.8125 106.199219 233.621094 103.941406 230.910156 103.910156 C 228.214844 103.875 225.992188 106.066406 225.992188 108.757812 C 225.972656 111.449219 228.097656 113.621094 230.777344 113.65625 Z M 230.777344 113.65625 "/>
</g>
</svg>
